<svg xmlns:rdf="http://www.w3.org/1999/02/22-rdf-syntax-ns#" xmlns="http://www.w3.org/2000/svg" height="650" width="900" version="1.1" xmlns:cc="http://creativecommons.org/ns#" xmlns:dc="http://purl.org/dc/elements/1.1/" viewBox="0 0 900.00001 650.00001">
 <g transform="translate(0 -402.36)">
  <rect height="650" width="900" y="402.36" x="-.0000016587" fill="#a23835"/>
  <circle cx="450" cy="727.36" r="275.67" fill="#35353f"/>
  <path d="m424.67 470.26v60.318c-86.319 9.405-159.46 82.882-170.33 168.77-13.886 84.858 33.089 175.97 111.95 211.37 18.295 8.7681 31.202 12.872 58.386 18.874v57.68h55.316v-61.424c70.781-10.475 133.93-61.401 156.59-129.67 7.3872-21.309 10.733-43.87 11.208-66.372h-243.26v51.461h179.33c-15.746 44.113-52.955 80.071-98.868 91.184-62.275 17.73-131.04-17.408-159.74-74.026-37.536-67.666-10.43-161.37 56.824-199.32 48.215-29.406 115.03-23.42 155.84 16.22 9.6382 9.1071 18.265 17.795 18.265 17.795h65.098c-28.399-52.9-81.754-91.922-141.29-101.22v-61.641z" transform="matrix(.93905 0 0 .93905 27.57 43.02)" stroke="#dcbe2d" stroke-width="1.4998" fill="#e6c832"/>
 </g>
</svg>
