<svg xmlns:rdf="http://www.w3.org/1999/02/22-rdf-syntax-ns#" xmlns="http://www.w3.org/2000/svg" height="650" width="900" version="1.1" xmlns:cc="http://creativecommons.org/ns#" xmlns:dc="http://purl.org/dc/elements/1.1/" viewBox="0 0 900.00001 650.00001">
 <g transform="translate(0 -402.36)">
  <rect height="650" width="900" y="402.36" x="-.0000016587" fill="#a23835"/>
  <path fill-rule="evenodd" style="color-rendering:auto;text-decoration-color:#000000;color:#000000;isolation:auto;mix-blend-mode:normal;shape-rendering:auto;solid-color:#000000;block-progression:tb;text-decoration-line:none;text-decoration-style:solid;image-rendering:auto;white-space:normal;text-indent:0;text-transform:none" d="m878.48 0.015248 7.2 7.3871-153.49 171.53-63.6-84.162-250.08 312.47-65.28-111.41-173.37 206.99-40.81-79.75-139.05 155.17-0.0029307 12.18 136.99-151.64l41.049 80.225 173.89-207.6 65.436 111.68 251.02-313.66 63.215 83.65 159.73-178.21 8.6686 7.6018c-0.01-13.426-0.05-18.12 0-22.459-7.41 0.0029062-10.7-0.001-21.53 0.014248z" transform="translate(0 402.36)" fill="#e6c832"/>
  <g>
   <path d="m0.00081226 620.37s-0.048007-29.947 0.0080011-29.979l68.334-75.76c37.219-41.266 68.311-75.983 68.704-75.983 0.3928 0 9.341 18.393 20.217 39.657s20.074 38.997 20.441 39.407c0.36673 0.4103 9.1435-9.383 19.504-21.763s19.855-23.853 20.239-23.853c0.38398 0 2.8017 3.9315 5.3726 7.7979 7.3862 11.108 31.408 24.343 42.544 35.587 41.66 42.064 84.544 65.33 143.89 74.795 16.003 2.5522 50.973 4.6513 68.054 2.5636 44.769-5.4721 86.365-12.583 122.87-37.073 59.639-40.011 97.924-102.33 112.87-171.51 7.15-33.102 9.9607-71.609 4.3908-104.37-8.5092-50.056-30.185-98.477-63.657-136.1l-7.7357-8.6946 12.199-13.075c5.5869-5.9881 9.6798-11.627 10.141-11.627s14.074 17.513 30.252 38.917c16.177 21.405 30.229 39.964 31.227 41.243l1.8142 2.3258 77.557-86.67c42.68-47.679 78.64-87.899 79.93-89.388l2.3469-2.7074 4.1672 4.0484 4.3592 4.3044v313.69 313.88l-449.79 0.3-450.22-0.33z" transform="translate(0 402.36)" fill="#2f4d41"/>
   <circle cx="450" cy="727.36" r="275.67" fill="#35353f"/>
   <path d="m424.67 470.26v60.318c-86.319 9.405-159.46 82.882-170.33 168.77-13.886 84.858 33.089 175.97 111.95 211.37 18.295 8.7681 31.202 12.872 58.386 18.874v57.68h55.316v-61.424c70.781-10.475 133.93-61.401 156.59-129.67 7.3872-21.309 10.733-43.87 11.208-66.372h-243.26v51.461h179.33c-15.746 44.113-52.955 80.071-98.868 91.184-62.275 17.73-131.04-17.408-159.74-74.026-37.536-67.666-10.43-161.37 56.824-199.32 48.215-29.406 115.03-23.42 155.84 16.22 9.6382 9.1071 18.265 17.795 18.265 17.795h65.098c-28.399-52.9-81.754-91.922-141.29-101.22v-61.641z" transform="matrix(.93905 0 0 .93905 27.57 43.02)" stroke="#dcbe2d" stroke-width="1.4998" fill="#e6c832"/>
  </g>
 </g>
</svg>
