<?xml version="1.0" encoding="UTF-8" standalone="no"?>
<!-- Created with Inkscape (http://www.inkscape.org/) -->

<svg
   xmlns:dc="http://purl.org/dc/elements/1.1/"
   xmlns:cc="http://creativecommons.org/ns#"
   xmlns:rdf="http://www.w3.org/1999/02/22-rdf-syntax-ns#"
   xmlns:svg="http://www.w3.org/2000/svg"
   xmlns="http://www.w3.org/2000/svg"
   xmlns:sodipodi="http://sodipodi.sourceforge.net/DTD/sodipodi-0.dtd"
   xmlns:inkscape="http://www.inkscape.org/namespaces/inkscape"
   width="500"
   height="500"
   viewBox="0 0 499.99998 500.00001"
   id="svg4391"
   version="1.1"
   inkscape:version="0.91 r13725"
   sodipodi:docname="gpf_scketch.svg">
  <defs
     id="defs4393" />
  <sodipodi:namedview
     id="base"
     pagecolor="#ffffff"
     bordercolor="#666666"
     borderopacity="1.0"
     inkscape:pageopacity="0.0"
     inkscape:pageshadow="2"
     inkscape:zoom="1.166331"
     inkscape:cx="169.14447"
     inkscape:cy="278.70615"
     inkscape:document-units="px"
     inkscape:current-layer="layer1"
     showgrid="false"
     units="px"
     inkscape:snap-bbox="false"
     inkscape:bbox-paths="true"
     inkscape:bbox-nodes="true"
     inkscape:snap-bbox-edge-midpoints="true"
     inkscape:snap-bbox-midpoints="true"
     showguides="false"
     inkscape:guide-bbox="true"
     inkscape:window-width="1920"
     inkscape:window-height="1170"
     inkscape:window-x="1080"
     inkscape:window-y="673"
     inkscape:window-maximized="1">
    <sodipodi:guide
       position="0,0"
       orientation="0,500"
       id="guide4947" />
    <sodipodi:guide
       position="499.99998,0"
       orientation="-500,0"
       id="guide4949" />
    <sodipodi:guide
       position="499.99998,500.00001"
       orientation="0,-500"
       id="guide4951" />
    <sodipodi:guide
       position="0,500.00001"
       orientation="500,0"
       id="guide4953" />
    <sodipodi:guide
       position="400.85743,450.69669"
       orientation="0,1"
       id="guide4967" />
    <sodipodi:guide
       position="450.69666,475.34835"
       orientation="1,0"
       id="guide4969" />
    <sodipodi:guide
       position="399.78562,488.21008"
       orientation="1,0"
       id="guide4971" />
    <sodipodi:guide
       position="-91.103962,399.24974"
       orientation="0,1"
       id="guide4975" />
    <sodipodi:guide
       position="349.9464,450.69669"
       orientation="1,0"
       id="guide4977" />
    <sodipodi:guide
       position="300.10717,422.29368"
       orientation="1,0"
       id="guide4979" />
    <sodipodi:guide
       position="314.57662,474.81244"
       orientation="0,1"
       id="guide4981" />
    <sodipodi:guide
       position="349.9464,424.97321"
       orientation="0,1"
       id="guide4983" />
    <sodipodi:guide
       position="326.36655,450.69669"
       orientation="1,0"
       id="guide4987" />
    <sodipodi:guide
       position="477.49194,474.81244"
       orientation="1,0"
       id="guide4989" />
  </sodipodi:namedview>
  <metadata
     id="metadata4396">
    <rdf:RDF>
      <cc:Work
         rdf:about="">
        <dc:format>image/svg+xml</dc:format>
        <dc:type
           rdf:resource="http://purl.org/dc/dcmitype/StillImage" />
        <dc:title></dc:title>
      </cc:Work>
    </rdf:RDF>
  </metadata>
  <g
     inkscape:label="Layer 1"
     inkscape:groupmode="layer"
     id="layer1"
     transform="translate(0,-552.36216)">
    <rect
       style="fill:#ffffff;fill-opacity:0.2485549;fill-rule:nonzero;stroke:none;stroke-width:20;stroke-miterlimit:4;stroke-dasharray:none;stroke-opacity:1"
       id="rect4955"
       width="500"
       height="500"
       x="-1.5258789e-05"
       y="552.36218" />
    <g
       id="g5215"
       transform="translate(-414.64943,-26.996379)">
      <path
         inkscape:connector-curvature="0"
         id="path5105"
         d="m 341.90613,712.74158 -43.30147,45.82024 -24.63884,-33.03938 -78.95802,66.0768 -13.99894,-25.75852 -43.56712,37.20324 A 114.02852,114.02852 0 0 0 248.53003,891.98263 114.02852,114.02852 0 0 0 362.5582,777.9545 114.02852,114.02852 0 0 0 341.90613,712.74158 Z"
         style="fill:#a23835;fill-opacity:1;fill-rule:nonzero;stroke:#cfb53b;stroke-width:5.03757095;stroke-linecap:round;stroke-linejoin:round;stroke-miterlimit:4;stroke-dasharray:none;stroke-opacity:1" />
      <path
         inkscape:connector-curvature="0"
         id="circle5100"
         d="m 248.53003,663.92633 a 114.02852,114.02852 0 0 0 -114.02817,114.02817 114.02852,114.02852 0 0 0 2.93988,25.08946 l 43.56712,-37.20324 13.99894,25.75852 78.95802,-66.0768 24.63884,33.03938 43.30147,-45.82024 a 114.02852,114.02852 0 0 0 -93.3761,-48.81525 z"
         style="fill:#35353f;fill-opacity:1;fill-rule:nonzero;stroke:#cfb53b;stroke-width:5.03757095;stroke-linecap:round;stroke-linejoin:round;stroke-miterlimit:4;stroke-dasharray:none;stroke-opacity:1" />
    </g>
    <g
       id="g6565">
      <path
         id="path6556"
         d="M 343.96393,709.71084 A 132.00615,132.00615 0 0 0 249.99997,670.356 132.00615,132.00615 0 0 0 117.99377,802.3622 132.00615,132.00615 0 0 0 172.97134,909.41669 l 8.65144,-38.67729 5.69765,30.38987 19.94402,-62.67955 0,32.28968 21.84205,-97.81761 4.74908,66.47828 31.33933,-110.16326 6.648,43.68498 18.99367,-77.87447 12.34566,204.18213 7.59747,-131.05585 7.59747,40.8366 25.58675,-99.29936 z"
         style="fill:#414169;fill-opacity:1;fill-rule:nonzero;stroke:#cfb53b;stroke-width:2.72084594;stroke-linecap:round;stroke-linejoin:round;stroke-miterlimit:4;stroke-dasharray:none;stroke-opacity:1"
         inkscape:connector-curvature="0" />
      <path
         id="path6549"
         d="m 343.96393,709.71084 -25.58675,99.29936 -7.59747,-40.8366 -7.59747,131.05585 -12.34566,-204.18213 -18.99367,77.87447 -6.648,-43.68498 -31.33933,110.16326 -4.74908,-66.47828 -21.84205,97.81761 0,-32.28968 -19.94402,62.67955 -5.69765,-30.38987 -8.65144,38.67729 a 132.00615,132.00615 0 0 0 77.02863,24.95171 132.00615,132.00615 0 0 0 132.00621,-132.0062 132.00615,132.00615 0 0 0 -38.04225,-92.65136 z"
         style="fill:#a23835;fill-opacity:1;fill-rule:nonzero;stroke:#cfb53b;stroke-width:2.72084594;stroke-linecap:round;stroke-linejoin:round;stroke-miterlimit:4;stroke-dasharray:none;stroke-opacity:1"
         inkscape:connector-curvature="0" />
      <g
         id="flowRoot5384"
         style="font-style:normal;font-weight:normal;font-size:270.9125061px;line-height:125%;font-family:sans-serif;letter-spacing:0px;word-spacing:0px;fill:#006c00;fill-opacity:0.95953757;stroke:none;stroke-width:1px;stroke-linecap:butt;stroke-linejoin:miter;stroke-opacity:1"
         transform="matrix(1.3493518,0,0,1.3493518,623.22952,-103.8402)">
        <path
           sodipodi:nodetypes="cccccssccssccsccccscccccccccscccccscccscccccccscccccc"
           inkscape:connector-curvature="0"
           id="path6547"
           style="font-style:normal;font-variant:normal;font-weight:500;font-stretch:normal;font-family:'AvantGarde LT Medium';-inkscape-font-specification:'AvantGarde LT Medium, Medium';fill:#006c00;fill-opacity:0.95953757"
           d="m -262.64713,548.06214 0,31.27565 c 11.19772,1.44487 20.49905,7.06736 27.90399,15.01413 7.58555,7.76615 11.64923,17.31622 12.19106,31.40368 l -28.1749,0 c -0.54183,-6.86312 -2.70913,-11.92162 -6.5019,-16.07561 -3.79277,-4.15399 -9.57224,-6.23099 -17.3384,-6.23099 -3.79277,0 -7.13403,0.81274 -10.02376,2.43821 -2.88973,1.44487 -5.32795,3.43156 -7.31464,5.96008 -1.80608,2.34791 -3.16064,5.05703 -4.06369,8.12737 -0.90304,3.07034 -1.35456,6.05038 -1.35456,8.94011 0,4.51521 0.72243,8.21769 2.1673,11.10742 1.62547,2.70912 3.79277,5.05703 6.5019,7.04372 2.88973,1.80609 6.32129,3.34126 10.29468,4.60551 3.97338,1.26426 8.39828,2.52852 13.27471,3.79278 2.70913,0.72243 6.59221,1.98669 11.64924,3.79277 5.05703,1.62548 10.02376,4.42491 14.90018,8.39829 5.05703,3.79277 9.39163,9.03042 13.0038,15.71293 3.79278,6.68251 5.68917,15.2614 5.68917,25.73669 0,4.69581 -0.63213,9.93345 -1.89639,15.71292 -1.08365,5.77947 -3.25095,11.37833 -6.5019,16.79658 -3.25095,5.23764 -7.67586,9.93346 -13.27471,14.08745 -5.41825,4.15399 -12.46198,6.95341 -21.13118,8.39828 l 0,31.02222 -25.73669,0 0,-31.02222 c -5.96007,-1.44487 -11.55893,-3.52186 -16.79657,-6.23098 -5.23765,-2.88973 -9.84316,-6.5019 -13.81654,-10.8365 -3.97339,-4.51521 -7.22434,-9.84316 -9.75285,-15.98384 -2.52852,-6.14069 -4.06369,-9.93282 -4.60551,-18.06019 l 28.1749,0 c 0.54182,5.96007 1.80608,7.5849 3.79277,11.55829 2.1673,3.97338 4.60551,7.13403 7.31464,9.48194 2.88973,2.1673 5.96008,3.70247 9.21103,4.60551 3.43155,0.90304 6.6825,1.35456 9.75285,1.35456 4.69581,0 8.7595,-0.81274 12.19106,-2.43821 3.43156,-1.80609 6.23099,-4.06369 8.39829,-6.77281 2.1673,-2.88973 3.79277,-6.14068 4.87642,-9.75285 1.08365,-3.79278 1.62548,-7.76616 1.62548,-11.92015 0,-5.59886 -1.26426,-10.20437 -3.79278,-13.81654 -2.34791,-3.61217 -5.32794,-6.5922 -8.94011,-8.94011 -3.43156,-2.34791 -7.13403,-4.06369 -11.10741,-5.14734 -3.97339,-1.26426 -7.58555,-2.34791 -10.8365,-3.25095 -3.07035,-0.90305 -7.04373,-2.16731 -11.92015,-3.79278 -4.69582,-1.62547 -9.39164,-4.15399 -14.08746,-7.58555 -4.51521,-3.61217 -8.48859,-8.39829 -11.92015,-14.35836 -3.25095,-5.96007 -4.87642,-13.72623 -4.87642,-23.29848 0,-3.97338 0.54182,-8.39828 1.62547,-13.27471 1.08365,-5.05703 3.07035,-9.93346 5.96008,-14.62927 2.88973,-4.87643 6.68251,-9.21103 11.37832,-13.0038 4.69582,-3.97339 10.7462,-6.86312 18.15114,-8.6692 l 0,-31.27565 z" />
      </g>
      <g
         id="flowRoot5020"
         style="font-style:normal;font-weight:normal;font-size:110.71421051px;line-height:125%;font-family:sans-serif;letter-spacing:0px;word-spacing:0px;fill:#e6c832;fill-opacity:1;stroke:#dcbe2d;stroke-width:0.31945834;stroke-linecap:butt;stroke-linejoin:miter;stroke-miterlimit:4;stroke-dasharray:none;stroke-opacity:1;"
         transform="matrix(3.1302986,0,0,3.1302986,148.95075,-1059.5876)">
        <path
           sodipodi:nodetypes="ccsccccccsssccccccsccccsscccccscccsscccsscssssccccccccc"
           inkscape:connector-curvature="0"
           id="path6504"
           transform="matrix(0.31945834,0,0,0.31945834,79.672538,455.13274)"
           d="m -140.68555,272.31679 -0.38672,32.31407 c -2.72135,-0.18665 -5.43558,-0.2793 -8.14257,-0.2793 -3.37185,0 -6.70102,0.12103 -9.98828,0.35938 l 0.38476,-32.39327 -20,0 -0.41797,35.44405 c -7.44852,1.762 -14.65357,4.2054 -21.61719,7.33398 -15.94215,6.93136 -29.80651,16.52019 -41.58984,28.76563 -11.78333,12.01436 -21.02428,26.10804 -27.72461,42.28125 -6.70032,16.17319 -10.05078,33.50071 -10.05078,51.98437 0,18.02157 3.35046,35.00316 10.05078,50.94532 6.70033,15.94215 15.82662,30.03583 27.37891,42.28125 11.78333,12.01437 25.64573,21.60321 41.58789,28.76562 7.06725,3.02883 14.37714,5.39625 21.92969,7.10156 l 0.45312,35.00105 20,0 -0.41797,-32.06941 c 3.41144,0.24248 6.86684,0.36328 10.36719,0.36328 2.58695,0 5.17808,-0.0887 7.77148,-0.25 l 0.41211,31.96277 20,0 -0.44726,-34.78308 c 6.33123,-1.39234 12.68157,-3.25212 19.05078,-5.59375 15.711105,-5.77613 29.80478,-14.20864 42.281249,-25.29883 12.476466,-11.09021 22.642493,-24.83796 30.498047,-41.24218 8.086598,-16.63531 12.360173,-35.69635 12.822265,-57.1836 l -162.193361,0 0,34.31055 119.566408,0 c -4.158823,10.62809 -9.011544,19.52313 -14.55664,26.68555 -5.545097,7.16241 -11.435594,13.16952 -17.673829,18.02148 -6.238232,4.62093 -12.476609,8.20265 -18.714839,10.74414 -6.00719,2.54151 -11.66838,4.50436 -16.98243,5.89063 -5.083,1.15522 -9.47319,1.84902 -13.16992,2.08008 -3.69673,0.23103 -6.12211,0.3457 -7.27734,0.3457 -12.24542,0 -24.14498,-2.42538 -35.69727,-7.27735 -11.32124,-5.083 -21.37065,-11.89858 -30.15039,-20.44726 -8.77973,-8.77974 -15.94318,-19.17703 -21.48828,-31.19141 -5.31405,-12.01438 -7.9707,-25.06831 -7.9707,-39.16211 0,-13.40064 2.42538,-26.10867 7.27734,-38.12304 4.85196,-12.01438 11.55287,-22.52632 20.10156,-31.53711 8.54869,-9.24181 18.60006,-16.51993 30.15235,-21.83399 11.55228,-5.31406 24.02708,-7.9707 37.42773,-7.9707 9.47288,0 17.90732,1.27099 25.30078,3.8125 7.39347,2.54151 13.97777,5.66071 19.75391,9.35742 5.776143,3.69674 10.628864,7.50777 14.55664,11.43555 4.158823,3.92777 7.623935,7.39483 10.396484,10.39844 l 43.667969,0 c -6.238234,-11.55229 -13.747607,-21.60365 -22.527344,-30.15235 -8.548689,-8.77973 -17.906253,-16.05785 -28.072265,-21.83398 -9.934965,-5.77615 -20.446914,-10.04972 -31.537114,-12.82227 -1.60787,-0.43546 -3.21339,-0.83079 -4.8164,-1.20312 l 0.42187,-35.33751 z"
           style="font-style:normal;font-variant:normal;font-weight:500;font-stretch:normal;font-family:'AvantGarde LT Medium';-inkscape-font-specification:'AvantGarde LT Medium, Medium';fill:#e6c832;fill-opacity:1;stroke:#dcbe2d;stroke-width:3.50000002;stroke-miterlimit:4;stroke-dasharray:none;stroke-opacity:1" />
      </g>
    </g>
  </g>
</svg>
