<?xml version="1.0" encoding="UTF-8" standalone="no"?>
<!-- Created with Inkscape (http://www.inkscape.org/) -->

<svg
   xmlns:dc="http://purl.org/dc/elements/1.1/"
   xmlns:cc="http://creativecommons.org/ns#"
   xmlns:rdf="http://www.w3.org/1999/02/22-rdf-syntax-ns#"
   xmlns:svg="http://www.w3.org/2000/svg"
   xmlns="http://www.w3.org/2000/svg"
   xmlns:sodipodi="http://sodipodi.sourceforge.net/DTD/sodipodi-0.dtd"
   xmlns:inkscape="http://www.inkscape.org/namespaces/inkscape"
   width="200"
   height="200"
   viewBox="0 0 200 200"
   id="svg7595"
   version="1.1"
   inkscape:version="0.91 r13725"
   sodipodi:docname="mrw.svg">
  <defs
     id="defs7597" />
  <sodipodi:namedview
     id="base"
     pagecolor="#ffffff"
     bordercolor="#666666"
     borderopacity="1.0"
     inkscape:pageopacity="0.0"
     inkscape:pageshadow="2"
     inkscape:zoom="2.8284271"
     inkscape:cx="44.417101"
     inkscape:cy="78.514642"
     inkscape:document-units="px"
     inkscape:current-layer="layer1"
     showgrid="false"
     units="px"
     showguides="false"
     inkscape:guide-bbox="true"
     inkscape:window-width="1920"
     inkscape:window-height="1170"
     inkscape:window-x="1080"
     inkscape:window-y="673"
     inkscape:window-maximized="1">
    <sodipodi:guide
       position="100,99.996094"
       orientation="1,0"
       id="guide8163" />
    <sodipodi:guide
       position="100,99.996094"
       orientation="0,1"
       id="guide8165" />
    <sodipodi:guide
       position="50,100"
       orientation="1,0"
       id="guide8167" />
    <sodipodi:guide
       position="50,150"
       orientation="0,1"
       id="guide8169" />
    <sodipodi:guide
       position="150,100"
       orientation="1,0"
       id="guide8171" />
    <sodipodi:guide
       position="99.996094,49.996094"
       orientation="0,1"
       id="guide8173" />
    <sodipodi:guide
       position="75,49.9375"
       orientation="1,0"
       id="guide8175" />
    <sodipodi:guide
       position="125,49.9375"
       orientation="1,0"
       id="guide8177" />
    <sodipodi:guide
       position="99.996094,74.996094"
       orientation="0,1"
       id="guide8179" />
    <sodipodi:guide
       position="99.996094,125"
       orientation="0,1"
       id="guide8181" />
    <sodipodi:guide
       position="112.5,74.996094"
       orientation="1,0"
       id="guide8183" />
    <sodipodi:guide
       position="87.496094,74.996094"
       orientation="1,0"
       id="guide8185" />
    <sodipodi:guide
       position="99.996094,62.5"
       orientation="0,1"
       id="guide8187" />
    <sodipodi:guide
       position="106.25,62.5"
       orientation="1,0"
       id="guide8189"
       inkscape:label=""
       inkscape:color="rgb(255,217,0)" />
    <sodipodi:guide
       position="93.75,62.5"
       orientation="1,0"
       id="guide8191"
       inkscape:label=""
       inkscape:color="rgb(255,230,0)" />
    <sodipodi:guide
       position="99.996094,68.75"
       orientation="0,1"
       id="guide8193"
       inkscape:label=""
       inkscape:color="rgb(91,255,0)" />
    <sodipodi:guide
       position="100,56.25"
       orientation="0,1"
       id="guide8195"
       inkscape:label=""
       inkscape:color="rgb(93,255,0)" />
    <sodipodi:guide
       position="93.75,62.5"
       orientation="0.70710678,0.70710678"
       id="guide8197" />
    <sodipodi:guide
       position="106.25,62.5"
       orientation="0.70710678,0.70710678"
       id="guide8199" />
    <sodipodi:guide
       position="106.25,68.75"
       orientation="0.70710678,0.70710678"
       id="guide8201" />
    <sodipodi:guide
       position="100,49.996094"
       orientation="0.70710678,0.70710678"
       id="guide8203" />
    <sodipodi:guide
       position="93.75,68.75"
       orientation="-0.70710678,0.70710678"
       id="guide8205" />
    <sodipodi:guide
       position="93.75,62.5"
       orientation="-0.70710678,0.70710678"
       id="guide8207" />
    <sodipodi:guide
       position="100,56.25"
       orientation="-0.70710678,0.70710678"
       id="guide8209" />
    <sodipodi:guide
       position="100,49.996094"
       orientation="-0.70710678,0.70710678"
       id="guide8211" />
    <sodipodi:guide
       position="137.5,56.25"
       orientation="1,0"
       id="guide8214" />
    <sodipodi:guide
       position="62.503906,99.996094"
       orientation="1,0"
       id="guide8241" />
    <sodipodi:guide
       position="81.25,56.25"
       orientation="1,0"
       id="guide8278" />
    <sodipodi:guide
       position="118.75,56.25"
       orientation="1,0"
       id="guide8280" />
    <sodipodi:guide
       position="131.25,56.25"
       orientation="1,0"
       id="guide8282" />
    <sodipodi:guide
       position="81.25,56.25"
       orientation="0.70710678,0.70710678"
       id="guide8284" />
    <sodipodi:guide
       position="81.246094,49.996094"
       orientation="0.70710678,0.70710678"
       id="guide8286" />
    <sodipodi:guide
       position="87.496094,68.75"
       orientation="-0.70710678,0.70710678"
       id="guide8288" />
    <sodipodi:guide
       position="87.496094,74.996094"
       orientation="-0.70710678,0.70710678"
       id="guide8290" />
    <sodipodi:guide
       position="68.75,68.75"
       orientation="-0.70710678,0.70710678"
       id="guide8294" />
    <sodipodi:guide
       position="62.503906,74.996094"
       orientation="-0.70710678,0.70710678"
       id="guide8296" />
    <sodipodi:guide
       position="50,74.996094"
       orientation="-0.70710678,0.70710678"
       id="guide8298" />
    <sodipodi:guide
       position="68.75,68.75"
       orientation="1,0"
       id="guide8422" />
    <sodipodi:guide
       position="71.871094,59.371094"
       orientation="1,0"
       id="guide8424" />
    <sodipodi:guide
       position="100,62.5"
       orientation="0.70710678,0.70710678"
       id="guide8428" />
    <sodipodi:guide
       position="78.123047,59.376953"
       orientation="1,0"
       id="guide8430" />
    <sodipodi:guide
       position="103.125,59.375"
       orientation="0,1"
       id="guide8432" />
    <sodipodi:guide
       position="90.625,65.625"
       orientation="1,0"
       id="guide8434" />
  </sodipodi:namedview>
  <metadata
     id="metadata7600">
    <rdf:RDF>
      <cc:Work
         rdf:about="">
        <dc:format>image/svg+xml</dc:format>
        <dc:type
           rdf:resource="http://purl.org/dc/dcmitype/StillImage" />
        <dc:title></dc:title>
      </cc:Work>
    </rdf:RDF>
  </metadata>
  <g
     inkscape:label="Layer 1"
     inkscape:groupmode="layer"
     id="layer1"
     transform="translate(0,-852.3622)">
    <path
       style="fill:none;fill-rule:evenodd;stroke:#e96464;stroke-width:0.5;stroke-linecap:butt;stroke-linejoin:miter;stroke-miterlimit:4;stroke-dasharray:none;stroke-opacity:1"
       d="m 73.453652,944.96132 6.305611,0.69193"
       id="path8292-2-6-7-0-6-3"
       inkscape:connector-curvature="0"
       sodipodi:nodetypes="cc" />
    <path
       style="fill:none;fill-rule:evenodd;stroke:#e96464;stroke-width:0.44999999;stroke-linecap:butt;stroke-linejoin:miter;stroke-miterlimit:4;stroke-dasharray:none;stroke-opacity:1"
       d="m 79.245782,940.99793 7.544731,0.53032"
       id="path8292-2-6-7-0-6"
       inkscape:connector-curvature="0"
       sodipodi:nodetypes="cc" />
    <path
       style="fill:none;fill-rule:evenodd;stroke:#e96464;stroke-width:0.40000001;stroke-linecap:butt;stroke-linejoin:miter;stroke-miterlimit:4;stroke-dasharray:none;stroke-opacity:1"
       d="M 84.266164,939.03729 92.66521,939.656"
       id="path8292-2-6-7-0"
       inkscape:connector-curvature="0"
       sodipodi:nodetypes="cc" />
    <path
       style="fill:none;fill-rule:evenodd;stroke:#e96464;stroke-width:0.38529968;stroke-linecap:butt;stroke-linejoin:miter;stroke-miterlimit:4;stroke-dasharray:none;stroke-opacity:1"
       d="m 87.899432,937.70968 9.153755,0.47139"
       id="path8292-2-6-7"
       inkscape:connector-curvature="0"
       sodipodi:nodetypes="cc" />
    <path
       style="fill:none;fill-rule:evenodd;stroke:#e96464;stroke-width:0.30000001;stroke-linecap:butt;stroke-linejoin:miter;stroke-miterlimit:4;stroke-dasharray:none;stroke-opacity:1"
       d="m 94.140817,937.05284 7.691943,0.35355"
       id="path8292-2-6"
       inkscape:connector-curvature="0"
       sodipodi:nodetypes="cc" />
    <path
       style="fill:none;fill-rule:evenodd;stroke:#e96464;stroke-width:0.2;stroke-linecap:butt;stroke-linejoin:miter;stroke-opacity:1;stroke-miterlimit:4;stroke-dasharray:none"
       d="m 97.25,936.47962 7.69194,0.35355"
       id="path8292-2"
       inkscape:connector-curvature="0"
       sodipodi:nodetypes="cc" />
    <path
       style="fill:none;fill-rule:evenodd;stroke:#e96464;stroke-width:1px;stroke-linecap:butt;stroke-linejoin:miter;stroke-opacity:1"
       d="m 68.578477,952.36952 6.426776,-2.9e-4"
       id="path8292-7"
       inkscape:connector-curvature="0"
       sodipodi:nodetypes="cc" />
    <g
       transform="matrix(1.0036964,0,0,1.0036964,552.00273,751.11497)"
       style="font-style:normal;font-variant:normal;font-weight:normal;font-stretch:normal;font-size:40px;line-height:125%;font-family:'PakType Naskh Basic';-inkscape-font-specification:'PakType Naskh Basic';letter-spacing:0px;word-spacing:0px;fill:#000098;fill-opacity:1;stroke:none;stroke-width:1px;stroke-linecap:butt;stroke-linejoin:miter;stroke-opacity:1"
       id="flowRoot7512">
      <path
         style="font-style:normal;font-variant:normal;font-weight:normal;font-stretch:normal;font-family:'PakType Naskh Basic';-inkscape-font-specification:'PakType Naskh Basic';fill:#646464;fill-opacity:1"
         d="m 123.00195,82.876953 c -19.67363,0 -33.381531,3.651433 -41.675778,9.070313 -4.147124,2.70945 -6.133775,5.747197 -6.740234,8.460934 -0.606461,2.71375 -0.08011,4.87668 1.070311,6.24805 0.590076,0.70341 1.641065,1.8688 3.296876,3.54492 l 13.367187,13.36524 c 0,0 1.441406,1.54687 1.443358,1.55273 l 3.128906,3.12305 -6.267364,6.13307 c 0,0 -2.13e-4,-2.6e-4 -3.117628,-3.12567 -3.140477,-3.14853 -1.542919,-6.14692 -1.542919,-6.14692 0.154889,-2.12518 14.034191,-12.59906 14.034191,-12.59906 0,0 -16.924912,5.34667 -19.175554,12.48758 -0.948303,3.00881 0.426697,6.26271 3.570807,9.40287 1.042984,1.04167 3.078371,3.17487 3.078371,3.17487 l 3.153842,3.06042 9.377638,-9.3774 c 0,0 6.26627,6.28088 9.39258,9.40821 0,0 2.71154,0.82138 3.50194,-1.08008 0.0803,0.14692 1.31102,1.25016 2.6836,1.02148 1.37874,-0.27665 2.07529,-0.83488 2.76953,-2.11133 1.44279,0.83046 2.17222,1.93045 3.91015,1.18946 2.4263,-1.31215 3.05391,-4.39992 3.11524,-6.9375 l -0.002,0 c -0.10022,-0.98403 -0.37944,-2.00531 -0.88086,-2.86328 -0.55919,0.38233 -1.28166,2.45659 -1.64258,3.40625 1.24239,2.31865 -0.6377,2.89381 -2.23242,1.77929 -1.47594,-1.11431 0.18937,-2.76561 -0.0742,-4.10547 -1.80699,-0.16896 -1.6707,2.40179 -2.41016,3.55665 -1.31232,1.58462 -2.88634,1.69706 -3.82812,1.35937 -1.18204,-0.15435 -1.09375,-1.21484 -1.09375,-1.21484 0,0 0.23142,-1.83037 -0.23633,-1.11524 -0.64836,3.79852 -3.59766,0.82617 -3.59766,0.82617 -7.18168,-7.18166 -8.97462,-8.96484 -8.97462,-8.96484 l -3.06055,-3.05664 -0.460935,-0.48045 -1.416016,-1.40039 -13.398437,-13.41016 -3.269532,-3.25586 c 0,0 -2.645758,-2.51595 -2.298828,-4.068355 0.34693,-1.55242 2.102065,-4.626633 5.558594,-7.001953 7.913006,-5.43781 21.802894,-9.050781 40.943354,-9.050781 l 2,0 0,-0.804688 z"
         transform="matrix(0.99631721,0,0,0.99631721,-549.96982,100.87436)"
         id="path7569"
         inkscape:connector-curvature="0"
         sodipodi:nodetypes="sssscccccsccsscccccccccccccccccccccccccsssccs" />
    </g>
    <path
       style="font-style:normal;font-variant:normal;font-weight:normal;font-stretch:normal;font-size:40px;line-height:125%;font-family:'PakType Naskh Basic';-inkscape-font-specification:'PakType Naskh Basic';letter-spacing:0px;word-spacing:0px;fill:#e96464;fill-opacity:1;stroke:none;stroke-width:1px;stroke-linecap:butt;stroke-linejoin:miter;stroke-opacity:1"
       d="m 109.38009,986.73673 c 0,0 2.2e-4,-3e-4 3.11763,-3.1257 3.14048,-3.1485 1.54292,-6.1469 1.54292,-6.1469 -0.44215,-1.97053 -14.03553,-12.58345 -14.03553,-12.58345 0,0 16.92625,5.33105 19.17689,12.47195 0.94831,3.0088 -0.42669,6.2627 -3.5708,9.4029 -1.04299,1.04161 -3.07837,3.17481 -3.07837,3.17481 l -3.15385,3.0605 z"
       id="path7569-0"
       inkscape:connector-curvature="0"
       sodipodi:nodetypes="csscssccc" />
    <g
       transform="matrix(1.9687446,0.04118797,-0.04118797,1.9687446,81.945515,964.62018)"
       style="font-style:normal;font-variant:normal;font-weight:normal;font-stretch:normal;font-size:24.73701668px;line-height:125%;font-family:'PakType Naskh Basic';-inkscape-font-specification:'PakType Naskh Basic';letter-spacing:0px;word-spacing:0px;fill:#8c0000;fill-opacity:1;stroke:none;stroke-width:1px;stroke-linecap:butt;stroke-linejoin:miter;stroke-opacity:1"
       id="flowRoot7512-3">
      <path
         style="font-style:normal;font-variant:normal;font-weight:normal;font-stretch:normal;font-family:'PakType Naskh Basic';-inkscape-font-specification:'PakType Naskh Basic';fill:#c8c8c8;fill-opacity:1"
         d="m 123.00802,94.818895 c -35.053195,0 -41.751201,4.354022 -48.588098,9.022905 -4.090882,2.79364 -6.133774,5.74719 -6.740234,8.46093 -0.606462,2.71375 -0.0098,4.84543 1.140624,6.2168 0.590077,0.70341 1.400831,1.68716 3.056642,3.36328 l 15.617187,15.61728 12.509769,12.50977 10.83593,-10.84571 c 1.66005,-1.66444 1.36303,-1.19705 2.80078,-2.89062 1.52802,0.81506 3.04838,1.75398 4.73829,2.13476 1.5024,0.33854 3.28111,1.0267 4.61914,0.0918 1.17827,-1.23394 1.72519,-2.52492 1.98633,-4.61719 0.0141,-4.16017 -0.22995,-8.01208 -3.43946,-8.7832 -1.34813,-0.36832 -3.22173,0.34054 -4.27344,1.4043 -1.78676,1.76243 -2.86585,2.84094 -4.94531,4.91797 -1.49149,1.49392 -2.94336,2.94921 -2.94336,2.94921 l -3.13086,3.125 L 100,143.75 87.501953,131.25 c -7.996967,-7.99417 -4.218342,-4.27403 -12.212898,-12.2754 l -3.267578,-3.25586 c 0,0 -2.774664,-2.53939 -2.427734,-4.0918 0.34693,-1.55242 2.045552,-4.70805 5.556641,-7.00195 7.022178,-4.5878 13.160823,-9.001417 47.857626,-9.001417 l 2,0 0,-0.804688 -2,0 z m -3.52169,35.755325 c 0.3497,-0.0345 0.69406,0.0655 0.95117,0.37109 0.83481,2.30945 0.94223,2.8291 -2.13672,1.61133 -0.97181,-0.56954 0.13643,-1.87881 1.18555,-1.98242 z"
         transform="matrix(0.50771568,-0.01062188,0.01062188,0.50771568,-42.933767,-62.476725)"
         id="path7574"
         inkscape:connector-curvature="0"
         sodipodi:nodetypes="cssscccccscccccccccccssscccccccc" />
    </g>
  </g>
</svg>
