<svg xmlns:rdf="http://www.w3.org/1999/02/22-rdf-syntax-ns#" xmlns="http://www.w3.org/2000/svg" height="650" width="900" version="1.1" xmlns:cc="http://creativecommons.org/ns#" xmlns:dc="http://purl.org/dc/elements/1.1/" viewBox="0 0 900.00001 650.00001">
 <g transform="translate(0 -402.36)">
  <rect height="650" width="900" y="402.36" x="0" fill="#323232"/>
  <circle cx="450" cy="727.36" r="275.67" fill="#f2f2f2"/>
  <g stroke="#e96464" fill="none">
   <g>
    <path d="m210.87 433.92 56.733 6.2254" stroke-width="4.4986"/>
    <path d="m262.98 398.26 67.882 4.7714" stroke-width="4.0487"/>
    <path d="m308.15 380.62 75.568 5.5667" stroke-width="3.5989"/>
    <path d="m340.84 368.68 82.358 4.2412" stroke-width="3.4666"/>
    <path d="m396.99 362.77 69.206 3.181" stroke-width="2.6992"/>
    <path d="m424.97 357.61 69.206 3.181" stroke-width="1.7994"/>
   </g>
   <path d="m167 500.57 57.823-0.003" stroke-width="8.9972px"/>
  </g>
  <g>
   <g fill="#000098" transform="matrix(9.0305 0 0 9.0305 4516.5 -1310.2)">
    <path d="m123 82.877c-19.674 0-33.382 3.6514-41.676 9.0703-4.1471 2.7094-6.1338 5.7472-6.7402 8.4609-0.60646 2.7138-0.08011 4.8767 1.0703 6.248 0.59008 0.70341 1.6411 1.8688 3.2969 3.5449l13.367 13.365s1.4414 1.5469 1.4434 1.5527l3.1289 3.123-6.2674 6.1331s-0.000213-0.00026-3.1176-3.1257c-3.1405-3.1485-1.5429-6.1469-1.5429-6.1469 0.15489-2.1252 14.034-12.599 14.034-12.599s-16.925 5.3467-19.176 12.488c-0.9483 3.0088 0.4267 6.2627 3.5708 9.4029 1.043 1.0417 3.0784 3.1749 3.0784 3.1749l3.1538 3.0604 9.3776-9.3774s6.2663 6.2809 9.3926 9.4082c0 0 2.7115 0.82138 3.5019-1.0801 0.0803 0.14692 1.311 1.2502 2.6836 1.0215 1.3787-0.27665 2.0753-0.83488 2.7695-2.1113 1.4428 0.83046 2.1722 1.9304 3.9102 1.1895 2.4263-1.3122 3.0539-4.3999 3.1152-6.9375h-0.002c-0.10022-0.98403-0.37944-2.0053-0.88086-2.8633-0.55919 0.38233-1.2817 2.4566-1.6426 3.4062 1.2424 2.3186-0.6377 2.8938-2.2324 1.7793-1.4759-1.1143 0.18937-2.7656-0.0742-4.1055-1.807-0.16896-1.6707 2.4018-2.4102 3.5566-1.3123 1.5846-2.8863 1.6971-3.8281 1.3594-1.182-0.15435-1.0938-1.2148-1.0938-1.2148s0.23142-1.8304-0.23633-1.1152c-0.64836 3.7985-3.5977 0.82617-3.5977 0.82617-7.1817-7.1817-8.9746-8.9648-8.9746-8.9648l-3.0606-3.0566-0.46094-0.48045-1.416-1.4004-13.398-13.41-3.2695-3.2559s-2.6458-2.516-2.2988-4.0684c0.34693-1.5524 2.1021-4.6266 5.5586-7.002 7.913-5.4378 21.803-9.0508 40.943-9.0508h2v-0.80469z" transform="matrix(.99632 0 0 .99632 -549.97 100.87)" fill="#646464"/>
   </g>
   <g fill="#8c0000" transform="matrix(17.713 .37058 -.37058 17.713 287.27 610.79)">
    <path d="m123.01 94.819c-35.053 0-41.751 4.354-48.588 9.0229-4.0909 2.7936-6.1338 5.7472-6.7402 8.4609-0.60646 2.7138-0.0098 4.8454 1.1406 6.2168 0.59008 0.70341 1.4008 1.6872 3.0566 3.3633l15.617 15.617 12.51 12.51 10.836-10.846c1.66-1.6644 1.363-1.197 2.8008-2.8906 1.528 0.81506 3.0484 1.754 4.7383 2.1348 1.5024 0.33854 3.2811 1.0267 4.6191 0.0918 1.1783-1.2339 1.7252-2.5249 1.9863-4.6172 0.0141-4.1602-0.22995-8.0121-3.4395-8.7832-1.3481-0.36832-3.2217 0.34054-4.2734 1.4043-1.7868 1.7624-2.8658 2.8409-4.9453 4.918-1.4915 1.4939-2.9434 2.9492-2.9434 2.9492l-3.1309 3.125-6.25 6.25-12.498-12.5c-7.997-7.9942-4.2183-4.274-12.213-12.275l-3.2676-3.2559s-2.7747-2.5394-2.4277-4.0918c0.34693-1.5524 2.0456-4.708 5.5566-7.002 7.0222-4.5878 13.161-9.0014 47.858-9.0014h2v-0.80469h-2zm-3.5217 35.755c0.3497-0.0345 0.69406 0.0655 0.95117 0.37109 0.83481 2.3094 0.94223 2.8291-2.1367 1.6113-0.97181-0.56954 0.13643-1.8788 1.1856-1.9824z" transform="matrix(.50772 -.010622 .010622 .50772 -42.934 -62.477)" fill="#c8c8c8"/>
   </g>
   <path d="m534.1 809.78s0.002-0.003 28.05-28.123c28.256-28.328 13.882-55.305 13.882-55.305-3.9781-17.729-126.28-113.22-126.28-113.22s152.29 47.965 172.54 112.21c8.5322 27.071-3.839 56.347-32.127 84.6-9.384 9.3716-27.697 28.564-27.697 28.564l-28.376 27.536z" fill="#e96464"/>
  </g>
 </g>
</svg>
