<?xml version="1.0" encoding="UTF-8" standalone="no"?>
<!-- Created with Inkscape (http://www.inkscape.org/) -->

<svg
   xmlns:dc="http://purl.org/dc/elements/1.1/"
   xmlns:cc="http://creativecommons.org/ns#"
   xmlns:rdf="http://www.w3.org/1999/02/22-rdf-syntax-ns#"
   xmlns:svg="http://www.w3.org/2000/svg"
   xmlns="http://www.w3.org/2000/svg"
   xmlns:sodipodi="http://sodipodi.sourceforge.net/DTD/sodipodi-0.dtd"
   xmlns:inkscape="http://www.inkscape.org/namespaces/inkscape"
   width="900"
   height="650"
   viewBox="0 0 900.00001 650.00001"
   id="svg2"
   version="1.1"
   inkscape:version="0.91 r13725"
   sodipodi:docname="mrw1.svg">
  <defs
     id="defs4" />
  <sodipodi:namedview
     id="base"
     pagecolor="#ffffff"
     bordercolor="#666666"
     borderopacity="1.0"
     inkscape:pageopacity="0.0"
     inkscape:pageshadow="2"
     inkscape:zoom="0.70710678"
     inkscape:cx="261.74831"
     inkscape:cy="470.45552"
     inkscape:document-units="px"
     inkscape:current-layer="layer1"
     showgrid="false"
     units="px"
     inkscape:snap-bbox="false"
     inkscape:bbox-paths="true"
     inkscape:bbox-nodes="true"
     inkscape:snap-bbox-edge-midpoints="true"
     inkscape:snap-bbox-midpoints="true"
     inkscape:window-width="1920"
     inkscape:window-height="1170"
     inkscape:window-x="1080"
     inkscape:window-y="673"
     inkscape:window-maximized="1"
     showguides="true"
     inkscape:guide-bbox="true">
    <sodipodi:guide
       position="0,0"
       orientation="0,900"
       id="guide4136" />
    <sodipodi:guide
       position="900.00001,0"
       orientation="-650,0"
       id="guide4138" />
    <sodipodi:guide
       position="900.00001,650.00001"
       orientation="0,-900"
       id="guide4140" />
    <sodipodi:guide
       position="0,650.00001"
       orientation="650,0"
       id="guide4142" />
    <sodipodi:guide
       position="450.21922,437.85056"
       orientation="1,0"
       id="guide4170" />
    <sodipodi:guide
       position="450.21922,325"
       orientation="0,1"
       id="guide4172" />
  </sodipodi:namedview>
  <metadata
     id="metadata7">
    <rdf:RDF>
      <cc:Work
         rdf:about="">
        <dc:format>image/svg+xml</dc:format>
        <dc:type
           rdf:resource="http://purl.org/dc/dcmitype/StillImage" />
        <dc:title></dc:title>
      </cc:Work>
    </rdf:RDF>
  </metadata>
  <g
     inkscape:label="Layer 1"
     inkscape:groupmode="layer"
     id="layer1"
     transform="translate(0,-402.36216)">
    <rect
       style="fill:#323232;fill-opacity:1;fill-rule:nonzero;stroke:none;stroke-width:20;stroke-miterlimit:4;stroke-dasharray:none;stroke-opacity:1"
       id="rect4144"
       width="900"
       height="650"
       x="0"
       y="402.36215" />
    <circle
       style="fill:#f2f2f2;fill-opacity:1;fill-rule:nonzero;stroke:none;stroke-width:20;stroke-miterlimit:4;stroke-dasharray:none;stroke-opacity:1"
       id="path4146"
       cx="450"
       cy="727.36218"
       r="275.67276" />
    <path
       style="fill:none;fill-rule:evenodd;stroke:#e96464;stroke-width:4.49860954;stroke-linecap:butt;stroke-linejoin:miter;stroke-miterlimit:4;stroke-dasharray:none;stroke-opacity:1"
       d="m 210.86672,433.91984 56.73297,6.22545"
       id="path8292-2-6-7-0-6-3"
       inkscape:connector-curvature="0"
       sodipodi:nodetypes="cc" />
    <path
       style="fill:none;fill-rule:evenodd;stroke:#e96464;stroke-width:4.04874849;stroke-linecap:butt;stroke-linejoin:miter;stroke-miterlimit:4;stroke-dasharray:none;stroke-opacity:1"
       d="m 262.97979,398.26035 67.88159,4.77141"
       id="path8292-2-6-7-0-6"
       inkscape:connector-curvature="0"
       sodipodi:nodetypes="cc" />
    <path
       style="fill:none;fill-rule:evenodd;stroke:#e96464;stroke-width:3.59888768;stroke-linecap:butt;stroke-linejoin:miter;stroke-miterlimit:4;stroke-dasharray:none;stroke-opacity:1"
       d="m 308.14926,380.62005 75.56806,5.56667"
       id="path8292-2-6-7-0"
       inkscape:connector-curvature="0"
       sodipodi:nodetypes="cc" />
    <path
       style="fill:none;fill-rule:evenodd;stroke:#e96464;stroke-width:3.46662569;stroke-linecap:butt;stroke-linejoin:miter;stroke-miterlimit:4;stroke-dasharray:none;stroke-opacity:1"
       d="m 340.83857,368.67525 82.35834,4.2412"
       id="path8292-2-6-7"
       inkscape:connector-curvature="0"
       sodipodi:nodetypes="cc" />
    <path
       style="fill:none;fill-rule:evenodd;stroke:#e96464;stroke-width:2.69916582;stroke-linecap:butt;stroke-linejoin:miter;stroke-miterlimit:4;stroke-dasharray:none;stroke-opacity:1"
       d="m 396.99368,362.76552 69.20609,3.18096"
       id="path8292-2-6"
       inkscape:connector-curvature="0"
       sodipodi:nodetypes="cc" />
    <path
       style="fill:none;fill-rule:evenodd;stroke:#e96464;stroke-width:1.79944384;stroke-linecap:butt;stroke-linejoin:miter;stroke-miterlimit:4;stroke-dasharray:none;stroke-opacity:1"
       d="m 424.96768,357.60813 69.20607,3.18097"
       id="path8292-2"
       inkscape:connector-curvature="0"
       sodipodi:nodetypes="cc" />
    <path
       style="fill:none;fill-rule:evenodd;stroke:#e96464;stroke-width:8.99721909px;stroke-linecap:butt;stroke-linejoin:miter;stroke-opacity:1"
       d="m 167.00371,500.57304 57.82311,-0.003"
       id="path8292-7"
       inkscape:connector-curvature="0"
       sodipodi:nodetypes="cc" />
    <g
       transform="matrix(9.0304763,0,0,9.0304763,4516.4776,-1310.1582)"
       style="font-style:normal;font-variant:normal;font-weight:normal;font-stretch:normal;font-size:40px;line-height:125%;font-family:'PakType Naskh Basic';-inkscape-font-specification:'PakType Naskh Basic';letter-spacing:0px;word-spacing:0px;fill:#000098;fill-opacity:1;stroke:none;stroke-width:1px;stroke-linecap:butt;stroke-linejoin:miter;stroke-opacity:1"
       id="flowRoot7512">
      <path
         style="font-style:normal;font-variant:normal;font-weight:normal;font-stretch:normal;font-family:'PakType Naskh Basic';-inkscape-font-specification:'PakType Naskh Basic';fill:#646464;fill-opacity:1"
         d="m 123.00195,82.876953 c -19.67363,0 -33.381531,3.651433 -41.675778,9.070313 -4.147124,2.70945 -6.133775,5.747197 -6.740234,8.460934 -0.606461,2.71375 -0.08011,4.87668 1.070311,6.24805 0.590076,0.70341 1.641065,1.8688 3.296876,3.54492 l 13.367187,13.36524 c 0,0 1.441406,1.54687 1.443358,1.55273 l 3.128906,3.12305 -6.267364,6.13307 c 0,0 -2.13e-4,-2.6e-4 -3.117628,-3.12567 -3.140477,-3.14853 -1.542919,-6.14692 -1.542919,-6.14692 0.154889,-2.12518 14.034191,-12.59906 14.034191,-12.59906 0,0 -16.924912,5.34667 -19.175554,12.48758 -0.948303,3.00881 0.426697,6.26271 3.570807,9.40287 1.042984,1.04167 3.078371,3.17487 3.078371,3.17487 l 3.153842,3.06042 9.377638,-9.3774 c 0,0 6.26627,6.28088 9.39258,9.40821 0,0 2.71154,0.82138 3.50194,-1.08008 0.0803,0.14692 1.31102,1.25016 2.6836,1.02148 1.37874,-0.27665 2.07529,-0.83488 2.76953,-2.11133 1.44279,0.83046 2.17222,1.93045 3.91015,1.18946 2.4263,-1.31215 3.05391,-4.39992 3.11524,-6.9375 l -0.002,0 c -0.10022,-0.98403 -0.37944,-2.00531 -0.88086,-2.86328 -0.55919,0.38233 -1.28166,2.45659 -1.64258,3.40625 1.24239,2.31865 -0.6377,2.89381 -2.23242,1.77929 -1.47594,-1.11431 0.18937,-2.76561 -0.0742,-4.10547 -1.80699,-0.16896 -1.6707,2.40179 -2.41016,3.55665 -1.31232,1.58462 -2.88634,1.69706 -3.82812,1.35937 -1.18204,-0.15435 -1.09375,-1.21484 -1.09375,-1.21484 0,0 0.23142,-1.83037 -0.23633,-1.11524 -0.64836,3.79852 -3.59766,0.82617 -3.59766,0.82617 -7.18168,-7.18166 -8.97462,-8.96484 -8.97462,-8.96484 l -3.06055,-3.05664 -0.460935,-0.48045 -1.416016,-1.40039 -13.398437,-13.41016 -3.269532,-3.25586 c 0,0 -2.645758,-2.51595 -2.298828,-4.068355 0.34693,-1.55242 2.102065,-4.626633 5.558594,-7.001953 7.913006,-5.43781 21.802894,-9.050781 40.943354,-9.050781 l 2,0 0,-0.804688 z"
         transform="matrix(0.99631721,0,0,0.99631721,-549.96982,100.87436)"
         id="path7569"
         inkscape:connector-curvature="0"
         sodipodi:nodetypes="sssscccccsccsscccccccccccccccccccccccccsssccs" />
    </g>
    <g
       transform="matrix(17.713226,0.37057719,-0.37057719,17.713226,287.26987,610.79491)"
       style="font-style:normal;font-variant:normal;font-weight:normal;font-stretch:normal;font-size:24.73701668px;line-height:125%;font-family:'PakType Naskh Basic';-inkscape-font-specification:'PakType Naskh Basic';letter-spacing:0px;word-spacing:0px;fill:#8c0000;fill-opacity:1;stroke:none;stroke-width:1px;stroke-linecap:butt;stroke-linejoin:miter;stroke-opacity:1"
       id="flowRoot7512-3">
      <path
         style="font-style:normal;font-variant:normal;font-weight:normal;font-stretch:normal;font-family:'PakType Naskh Basic';-inkscape-font-specification:'PakType Naskh Basic';fill:#c8c8c8;fill-opacity:1"
         d="m 123.00802,94.818895 c -35.053195,0 -41.751201,4.354022 -48.588098,9.022905 -4.090882,2.79364 -6.133774,5.74719 -6.740234,8.46093 -0.606462,2.71375 -0.0098,4.84543 1.140624,6.2168 0.590077,0.70341 1.400831,1.68716 3.056642,3.36328 l 15.617187,15.61728 12.509769,12.50977 10.83593,-10.84571 c 1.66005,-1.66444 1.36303,-1.19705 2.80078,-2.89062 1.52802,0.81506 3.04838,1.75398 4.73829,2.13476 1.5024,0.33854 3.28111,1.0267 4.61914,0.0918 1.17827,-1.23394 1.72519,-2.52492 1.98633,-4.61719 0.0141,-4.16017 -0.22995,-8.01208 -3.43946,-8.7832 -1.34813,-0.36832 -3.22173,0.34054 -4.27344,1.4043 -1.78676,1.76243 -2.86585,2.84094 -4.94531,4.91797 -1.49149,1.49392 -2.94336,2.94921 -2.94336,2.94921 l -3.13086,3.125 L 100,143.75 87.501953,131.25 c -7.996967,-7.99417 -4.218342,-4.27403 -12.212898,-12.2754 l -3.267578,-3.25586 c 0,0 -2.774664,-2.53939 -2.427734,-4.0918 0.34693,-1.55242 2.045552,-4.70805 5.556641,-7.00195 7.022178,-4.5878 13.160823,-9.001417 47.857626,-9.001417 l 2,0 0,-0.804688 -2,0 z m -3.52169,35.755325 c 0.3497,-0.0345 0.69406,0.0655 0.95117,0.37109 0.83481,2.30945 0.94223,2.8291 -2.13672,1.61133 -0.97181,-0.56954 0.13643,-1.87881 1.18555,-1.98242 z"
         transform="matrix(0.50771568,-0.01062188,0.01062188,0.50771568,-42.933767,-62.476725)"
         id="path7574"
         inkscape:connector-curvature="0"
         sodipodi:nodetypes="cssscccccscccccccccccssscccccccc" />
    </g>
    <path
       style="font-style:normal;font-variant:normal;font-weight:normal;font-stretch:normal;font-size:40px;line-height:125%;font-family:'PakType Naskh Basic';-inkscape-font-specification:'PakType Naskh Basic';letter-spacing:0px;word-spacing:0px;fill:#e96464;fill-opacity:1;stroke:none;stroke-width:1px;stroke-linecap:butt;stroke-linejoin:miter;stroke-opacity:1"
       d="m 534.10475,809.78236 c 0,0 0.002,-0.003 28.05,-28.12261 28.25559,-28.32775 13.88199,-55.30501 13.88199,-55.30501 -3.97812,-17.72929 -126.28073,-113.21605 -126.28073,-113.21605 0,0 152.28917,47.96462 172.53867,112.21286 8.53216,27.07083 -3.83902,56.34689 -32.12726,84.59995 -9.38401,9.3716 -27.69677,28.56446 -27.69677,28.56446 l -28.37588,27.53599 z"
       id="path7569-0"
       inkscape:connector-curvature="0"
       sodipodi:nodetypes="csscssccc" />
  </g>
</svg>
