<?xml version="1.0" encoding="UTF-8" standalone="no"?>
<!-- Created with Inkscape (http://www.inkscape.org/) -->

<svg
   xmlns:dc="http://purl.org/dc/elements/1.1/"
   xmlns:cc="http://creativecommons.org/ns#"
   xmlns:rdf="http://www.w3.org/1999/02/22-rdf-syntax-ns#"
   xmlns:svg="http://www.w3.org/2000/svg"
   xmlns="http://www.w3.org/2000/svg"
   xmlns:sodipodi="http://sodipodi.sourceforge.net/DTD/sodipodi-0.dtd"
   xmlns:inkscape="http://www.inkscape.org/namespaces/inkscape"
   width="200"
   height="200"
   viewBox="0 0 200 200"
   id="svg7595"
   version="1.1"
   inkscape:version="0.91 r13725"
   sodipodi:docname="mrw2.svg">
  <defs
     id="defs7597" />
  <sodipodi:namedview
     id="base"
     pagecolor="#ffffff"
     bordercolor="#666666"
     borderopacity="1.0"
     inkscape:pageopacity="0.0"
     inkscape:pageshadow="2"
     inkscape:zoom="5.6568542"
     inkscape:cx="107.11981"
     inkscape:cy="88.302836"
     inkscape:document-units="px"
     inkscape:current-layer="layer1"
     showgrid="false"
     units="px"
     showguides="true"
     inkscape:guide-bbox="true"
     inkscape:window-width="1920"
     inkscape:window-height="1170"
     inkscape:window-x="1080"
     inkscape:window-y="673"
     inkscape:window-maximized="1">
    <sodipodi:guide
       position="100,99.996094"
       orientation="1,0"
       id="guide8163" />
    <sodipodi:guide
       position="100,99.996094"
       orientation="0,1"
       id="guide8165" />
    <sodipodi:guide
       position="50,100"
       orientation="1,0"
       id="guide8167" />
    <sodipodi:guide
       position="50,150"
       orientation="0,1"
       id="guide8169" />
    <sodipodi:guide
       position="150,100"
       orientation="1,0"
       id="guide8171" />
    <sodipodi:guide
       position="99.996094,49.996094"
       orientation="0,1"
       id="guide8173" />
    <sodipodi:guide
       position="75,49.9375"
       orientation="1,0"
       id="guide8175" />
    <sodipodi:guide
       position="125,49.9375"
       orientation="1,0"
       id="guide8177" />
    <sodipodi:guide
       position="99.996094,74.996094"
       orientation="0,1"
       id="guide8179" />
    <sodipodi:guide
       position="99.996094,125"
       orientation="0,1"
       id="guide8181" />
    <sodipodi:guide
       position="112.5,74.996094"
       orientation="1,0"
       id="guide8183" />
    <sodipodi:guide
       position="87.496094,74.996094"
       orientation="1,0"
       id="guide8185" />
    <sodipodi:guide
       position="99.996094,62.5"
       orientation="0,1"
       id="guide8187" />
    <sodipodi:guide
       position="106.25,62.5"
       orientation="1,0"
       id="guide8189"
       inkscape:label=""
       inkscape:color="rgb(255,217,0)" />
    <sodipodi:guide
       position="93.75,62.5"
       orientation="1,0"
       id="guide8191"
       inkscape:label=""
       inkscape:color="rgb(255,230,0)" />
    <sodipodi:guide
       position="99.996094,68.75"
       orientation="0,1"
       id="guide8193"
       inkscape:label=""
       inkscape:color="rgb(91,255,0)" />
    <sodipodi:guide
       position="100,56.25"
       orientation="0,1"
       id="guide8195"
       inkscape:label=""
       inkscape:color="rgb(93,255,0)" />
    <sodipodi:guide
       position="93.75,62.5"
       orientation="0.70710678,0.70710678"
       id="guide8197" />
    <sodipodi:guide
       position="106.25,62.5"
       orientation="0.70710678,0.70710678"
       id="guide8199" />
    <sodipodi:guide
       position="106.25,68.75"
       orientation="0.70710678,0.70710678"
       id="guide8201" />
    <sodipodi:guide
       position="100,49.996094"
       orientation="0.70710678,0.70710678"
       id="guide8203" />
    <sodipodi:guide
       position="93.75,68.75"
       orientation="-0.70710678,0.70710678"
       id="guide8205" />
    <sodipodi:guide
       position="93.75,62.5"
       orientation="-0.70710678,0.70710678"
       id="guide8207" />
    <sodipodi:guide
       position="100,56.25"
       orientation="-0.70710678,0.70710678"
       id="guide8209" />
    <sodipodi:guide
       position="100,49.996094"
       orientation="-0.70710678,0.70710678"
       id="guide8211" />
    <sodipodi:guide
       position="137.5,56.25"
       orientation="1,0"
       id="guide8214" />
    <sodipodi:guide
       position="62.503906,99.996094"
       orientation="1,0"
       id="guide8241" />
    <sodipodi:guide
       position="81.25,56.25"
       orientation="1,0"
       id="guide8278" />
    <sodipodi:guide
       position="118.75,56.25"
       orientation="1,0"
       id="guide8280" />
    <sodipodi:guide
       position="131.25,56.25"
       orientation="1,0"
       id="guide8282" />
    <sodipodi:guide
       position="81.25,56.25"
       orientation="0.70710678,0.70710678"
       id="guide8284" />
    <sodipodi:guide
       position="81.246094,49.996094"
       orientation="0.70710678,0.70710678"
       id="guide8286" />
    <sodipodi:guide
       position="87.496094,68.75"
       orientation="-0.70710678,0.70710678"
       id="guide8288" />
    <sodipodi:guide
       position="87.496094,74.996094"
       orientation="-0.70710678,0.70710678"
       id="guide8290" />
    <sodipodi:guide
       position="68.75,68.75"
       orientation="-0.70710678,0.70710678"
       id="guide8294" />
    <sodipodi:guide
       position="62.503906,74.996094"
       orientation="-0.70710678,0.70710678"
       id="guide8296" />
    <sodipodi:guide
       position="50,74.996094"
       orientation="-0.70710678,0.70710678"
       id="guide8298" />
    <sodipodi:guide
       position="68.75,68.75"
       orientation="1,0"
       id="guide8422" />
    <sodipodi:guide
       position="71.871094,59.371094"
       orientation="1,0"
       id="guide8424" />
    <sodipodi:guide
       position="100,62.5"
       orientation="0.70710678,0.70710678"
       id="guide8428" />
    <sodipodi:guide
       position="78.123047,59.376953"
       orientation="1,0"
       id="guide8430" />
    <sodipodi:guide
       position="103.125,59.375"
       orientation="0,1"
       id="guide8432" />
    <sodipodi:guide
       position="90.625,65.625"
       orientation="1,0"
       id="guide8434" />
  </sodipodi:namedview>
  <metadata
     id="metadata7600">
    <rdf:RDF>
      <cc:Work
         rdf:about="">
        <dc:format>image/svg+xml</dc:format>
        <dc:type
           rdf:resource="http://purl.org/dc/dcmitype/StillImage" />
        <dc:title></dc:title>
      </cc:Work>
    </rdf:RDF>
  </metadata>
  <g
     inkscape:label="Layer 1"
     inkscape:groupmode="layer"
     id="layer1"
     transform="translate(0,-852.3622)">
    <path
       style="fill:none;fill-rule:evenodd;stroke:#e96464;stroke-width:1px;stroke-linecap:butt;stroke-linejoin:miter;stroke-opacity:1"
       d="m -77.17391,1029.7977 6.426776,-3e-4"
       id="path8292-7"
       inkscape:connector-curvature="0"
       sodipodi:nodetypes="cc" />
    <g
       id="g4256">
      <path
         sodipodi:nodetypes="cc"
         inkscape:connector-curvature="0"
         id="path8292-2-6-7-0-6"
         d="m 76.549938,958.76399 9.135721,0.13257"
         style="fill:none;fill-rule:evenodd;stroke:#e96464;stroke-width:0.6;stroke-linecap:butt;stroke-linejoin:miter;stroke-miterlimit:4;stroke-dasharray:none;stroke-opacity:1" />
      <path
         sodipodi:nodetypes="cc"
         inkscape:connector-curvature="0"
         id="path8292-2-6-7-0"
         d="m 79.448999,956.44979 9.25482,-0.0862"
         style="fill:none;fill-rule:evenodd;stroke:#e96464;stroke-width:0.5;stroke-linecap:butt;stroke-linejoin:miter;stroke-miterlimit:4;stroke-dasharray:none;stroke-opacity:1" />
      <path
         sodipodi:nodetypes="cc"
         inkscape:connector-curvature="0"
         id="path8292-2-6-7"
         d="m 85.247782,954.14991 c 5.067113,-0.0516 14.120595,-0.51595 9.153755,0.47139"
         style="fill:none;fill-rule:evenodd;stroke:#e96464;stroke-width:0.35;stroke-linecap:butt;stroke-linejoin:miter;stroke-miterlimit:4;stroke-dasharray:none;stroke-opacity:1" />
      <path
         sodipodi:nodetypes="cc"
         inkscape:connector-curvature="0"
         id="path8292-2-6"
         d="m 91.489167,953.49307 c 7.245886,-0.32155 9.548513,-0.17917 7.691943,0.35355"
         style="fill:none;fill-rule:evenodd;stroke:#e96464;stroke-width:0.30000001;stroke-linecap:butt;stroke-linejoin:miter;stroke-miterlimit:4;stroke-dasharray:none;stroke-opacity:1" />
      <path
         sodipodi:nodetypes="cc"
         inkscape:connector-curvature="0"
         id="path8292-2"
         d="m 98.962525,953.01929 2.101375,0.12153"
         style="fill:none;fill-rule:evenodd;stroke:#e96464;stroke-width:0.2;stroke-linecap:butt;stroke-linejoin:miter;stroke-miterlimit:4;stroke-dasharray:none;stroke-opacity:1" />
      <path
         sodipodi:nodetypes="cc"
         inkscape:connector-curvature="0"
         id="path8292-2-6-7-00"
         d="m 82.296024,954.9674 c 5.067113,-0.0516 13.276843,-0.32845 8.310005,0.65889"
         style="fill:none;fill-rule:evenodd;stroke:#e96464;stroke-width:0.44999999;stroke-linecap:butt;stroke-linejoin:miter;stroke-miterlimit:4;stroke-dasharray:none;stroke-opacity:1" />
      <g
         id="flowRoot7512-3"
         style="font-style:normal;font-variant:normal;font-weight:normal;font-stretch:normal;font-size:24.73701668px;line-height:125%;font-family:'PakType Naskh Basic';-inkscape-font-specification:'PakType Naskh Basic';letter-spacing:0px;word-spacing:0px;fill:#8c0000;fill-opacity:1;stroke:none;stroke-width:1px;stroke-linecap:butt;stroke-linejoin:miter;stroke-opacity:1"
         transform="matrix(1.9687446,0.04118797,-0.04118797,1.9687446,81.945515,964.62018)">
        <path
           sodipodi:nodetypes="ssscccccscccccccccccsscscccc"
           inkscape:connector-curvature="0"
           id="path7574"
           transform="matrix(0.50771568,-0.01062188,0.01062188,0.50771568,-42.933767,-62.476725)"
           d="m 81.357422,115.0293 c -2.425231,0.96924 -5.508774,2.18469 -6.115234,4.89843 -0.606462,2.71375 -0.0098,4.84543 1.140624,6.2168 0.590077,0.70341 1.400831,1.68716 3.056642,3.36328 l 8.054687,7.99228 12.509769,12.50977 10.83593,-10.84571 c 1.66005,-1.66444 1.36303,-1.19705 2.80078,-2.89062 1.52802,0.81506 3.04838,1.75398 4.73829,2.13476 1.5024,0.33854 3.28111,1.0267 4.61914,0.0918 1.17827,-1.23394 1.72519,-2.52492 1.98633,-4.61719 0.0141,-4.16017 -0.22995,-8.01208 -3.43946,-8.7832 -1.34813,-0.36832 -3.22173,0.34054 -4.27344,1.4043 -1.78676,1.76243 -2.86585,2.84094 -4.94531,4.91797 -1.49149,1.49392 -2.94336,2.94921 -2.94336,2.94921 l -3.13086,3.125 L 100,143.75 87.501953,131.25 c -7.996967,-7.99417 3.344158,3.35097 -4.650398,-4.6504 l -3.267578,-3.25586 c 0,0 -2.774664,-2.53939 -2.427734,-4.0918 0.34693,-1.55242 3.048905,-2.75237 4.931641,-3.43945 8.518293,-3.10862 29.914026,-2.83231 35.674756,-3.24959 0,0 -29.476258,-0.30276 -36.405218,2.4664 z m 38.128908,15.54492 c 0.3497,-0.0345 0.69406,0.0655 0.95117,0.37109 0.83481,2.30945 0.94223,2.8291 -2.13672,1.61133 -0.97181,-0.56954 0.13643,-1.87881 1.18555,-1.98242 z"
           style="font-style:normal;font-variant:normal;font-weight:normal;font-stretch:normal;font-family:'PakType Naskh Basic';-inkscape-font-specification:'PakType Naskh Basic';fill:#c8c8c8;fill-opacity:1" />
      </g>
      <g
         id="flowRoot7512-39"
         style="font-style:normal;font-variant:normal;font-weight:normal;font-stretch:normal;font-size:40px;line-height:125%;font-family:'PakType Naskh Basic';-inkscape-font-specification:'PakType Naskh Basic';letter-spacing:0px;word-spacing:0px;fill:#000098;fill-opacity:1;stroke:none;stroke-width:1px;stroke-linecap:butt;stroke-linejoin:miter;stroke-opacity:1"
         transform="matrix(0.78250619,-0.62856228,0.62856228,0.78250619,481.75923,619.18817)">
        <path
           sodipodi:nodetypes="cccccccccccccccc"
           inkscape:connector-curvature="0"
           id="path7569-6"
           d="m -512.64218,42.173006 c 0,0 2.57769,1.770225 3.36518,-0.124232 0.08,0.146379 1.30619,1.245556 2.67372,1.017718 1.37366,-0.275631 2.06764,-0.831805 2.75933,-2.103554 1.43747,0.827401 2.16422,1.92334 3.89575,1.185079 2.41736,-1.307318 3.04266,-4.383716 3.10376,-6.911951 l -0.002,0 c -0.0999,-0.980406 -0.37804,-1.997924 -0.87761,-2.852735 -0.55713,0.380922 -1.27694,2.447543 -1.63654,3.393706 1.23782,2.310111 -0.63535,2.883152 -2.22419,1.772737 -1.47051,-1.110206 0.18867,-2.755425 -0.0739,-4.09035 -1.80034,-0.168338 -1.66455,2.392944 -2.40128,3.543551 -1.30749,1.578784 -2.87571,1.69081 -3.81403,1.354364 -1.17768,-0.153782 -1.08972,-1.210366 -1.08972,-1.210366 0,0 0.23057,-1.823629 -0.23546,-1.111133 -0.64597,3.784531 -2.36436,3.480462 -2.36436,3.480462"
           style="font-style:normal;font-variant:normal;font-weight:normal;font-stretch:normal;font-family:'PakType Naskh Basic';-inkscape-font-specification:'PakType Naskh Basic';fill:#646464;fill-opacity:1" />
      </g>
      <path
         sodipodi:nodetypes="ssscccsscccccccccccccccccsscscccccscc"
         inkscape:connector-curvature="0"
         id="path4253"
         transform="translate(0,852.3622)"
         d="m 115.3457,99.964844 c -6.30716,-0.04273 -19.769072,0.283906 -26.544919,3.591796 -2.332956,1.13892 -4.384667,2.9809 -5.474609,5.53906 -1.777607,4.17216 1.050781,6.53321 1.050781,6.53321 l 0.591797,0.5957 2.160156,2.15625 c -2.981911,1.89358 -5.526248,4.13952 -6.304687,6.60937 -0.948303,3.00881 0.426202,6.26414 3.570312,9.4043 1.042984,1.04167 3.078125,3.17383 3.078125,3.17383 l 3.154297,3.06055 9.376957,-9.37696 9.37695,9.37696 0.002,-6.24805 -6.25781,-6.25586 8.65625,-8.65625 -3.125,-3.125 -8.65234,8.66016 c 0,0 -2.276175,-2.27081 -2.66016,-2.6543 l -0.460938,-0.48047 -1.33789,-1.41602 -2.494141,-2.45507 C 96.536617,115.11717 100,112.50391 100,112.50391 c 0,0 -4.297806,1.36052 -8.849609,3.62109 l -3.003907,-2.95703 -0.607422,-0.67774 c 0,0 -2.645758,-2.51596 -2.298828,-4.06835 0.34693,-1.55242 2.517928,-3.21571 4.292969,-4.08008 8.852269,-4.31072 28.307627,-3.99721 29.222657,-4.3086 0,0 -1.30777,-0.05411 -3.41016,-0.06836 z m -25.677731,20.953126 2.652343,2.64844 1.44336,1.4414 3.107422,3.12305 L 90.625,134.375 c 0,0 2.27e-4,4.1e-4 -3.117188,-3.125 -3.140476,-3.14853 -1.542968,-6.14648 -1.542968,-6.14648 0.05115,-0.70181 1.652652,-2.34068 3.703125,-4.18555 z"
         style="fill:#646464;fill-opacity:1;fill-rule:evenodd;stroke:none;stroke-width:1px;stroke-linecap:butt;stroke-linejoin:miter;stroke-opacity:1" />
      <path
         sodipodi:nodetypes="csscssccc"
         inkscape:connector-curvature="0"
         id="path7569-0"
         d="m 109.38009,986.73673 c 0,0 2.2e-4,-3e-4 3.11763,-3.1257 3.14048,-3.1485 1.54292,-6.1469 1.54292,-6.1469 -0.44215,-1.97053 -14.03553,-12.58345 -14.03553,-12.58345 0,0 16.92625,5.33105 19.17689,12.47195 0.94831,3.0088 -0.42669,6.2627 -3.5708,9.4029 -1.04299,1.04161 -3.07837,3.17481 -3.07837,3.17481 l -3.15385,3.0605 z"
         style="font-style:normal;font-variant:normal;font-weight:normal;font-stretch:normal;font-size:40px;line-height:125%;font-family:'PakType Naskh Basic';-inkscape-font-specification:'PakType Naskh Basic';letter-spacing:0px;word-spacing:0px;fill:#e96464;fill-opacity:1;stroke:none;stroke-width:1px;stroke-linecap:butt;stroke-linejoin:miter;stroke-opacity:1" />
      <g
         id="flowRoot7512"
         style="font-style:normal;font-variant:normal;font-weight:normal;font-stretch:normal;font-size:40px;line-height:125%;font-family:'PakType Naskh Basic';-inkscape-font-specification:'PakType Naskh Basic';letter-spacing:0px;word-spacing:0px;fill:#000098;fill-opacity:1;stroke:none;stroke-width:1px;stroke-linecap:butt;stroke-linejoin:miter;stroke-opacity:1"
         transform="matrix(1.0036964,0,0,1.0036964,552.00273,751.11497)" />
    </g>
  </g>
</svg>
