<svg xmlns:rdf="http://www.w3.org/1999/02/22-rdf-syntax-ns#" xmlns="http://www.w3.org/2000/svg" height="650" width="900" version="1.1" xmlns:cc="http://creativecommons.org/ns#" xmlns:dc="http://purl.org/dc/elements/1.1/" viewBox="0 0 900.00001 650.00001">
 <g transform="translate(0 -402.36)">
  <g>
   <rect height="650" width="900" y="402.36" x="-.0026862" fill="#323232"/>
   <path d="m220.61 526.27a153.6 153.6 0 0 0 -153.6 153.6 153.6 153.6 0 0 0 -153.6 153.6 153.6 153.6 0 0 0 27.386 87.235 176.22 176.22 0 0 0 -45.886 118.3 176.22 176.22 0 0 0 176.22 176.22 176.22 176.22 0 0 0 90.467 -25.214 176.22 176.22 0 0 0 173.31 144.73 176.22 176.22 0 0 0 147.6 -80.241 176.22 176.22 0 0 0 151.26 86.194 176.22 176.22 0 0 0 123.89 -51.004 135.74 135.74 0 0 0 52.331 10.521 135.74 135.74 0 0 0 135.74 -135.74 135.74 135.74 0 0 0 -46.917 -102.54 75.013 75.013 0 0 0 61.204 -73.684 75.013 75.013 0 0 0 -75.012 -75.012 135.74 135.74 0 0 0 -135.74 -135.74 75.013 75.013 0 0 0 -75.012 -75.012 75.013 75.013 0 0 0 -30.087 6.3969 176.22 176.22 0 0 0 0.32155 -6.3989 176.22 176.22 0 0 0 -176.22 -176.22 176.22 176.22 0 0 0 -128.88 56.366 153.6 153.6 0 0 0 -118.78 -56.366zm600.89 501.83a75.013 75.013 0 0 0 0.79786 1.252 135.74 135.74 0 0 0 -2.7432 -0.1366 135.74 135.74 0 0 0 1.9454 -1.1154z" fill-opacity=".66667" fill="#fff"/>
   <path d="m248.08 655.86a136.91 136.91 0 0 0 -136.91 136.91 136.91 136.91 0 0 0 -136.91 136.91 136.91 136.91 0 0 0 24.41 77.757 157.07 157.07 0 0 0 -40.9 105.45 157.07 157.07 0 0 0 157.07 157.07 157.07 157.07 0 0 0 80.636 -22.475 157.07 157.07 0 0 0 154.48 129.01 157.07 157.07 0 0 0 131.57 -71.524 157.07 157.07 0 0 0 134.83 76.829 157.07 157.07 0 0 0 110.43 -45.464 120.99 120.99 0 0 0 46.645 9.3799 120.99 120.99 0 0 0 120.99 -120.99 120.99 120.99 0 0 0 -41.82 -91.397 66.863 66.863 0 0 0 54.556 -65.678 66.863 66.863 0 0 0 -66.862 -66.862 120.99 120.99 0 0 0 -120.99 -120.99 66.863 66.863 0 0 0 -66.862 -66.862 66.863 66.863 0 0 0 -26.818 5.7054 157.07 157.07 0 0 0 0.28548 -5.7054 157.07 157.07 0 0 0 -157.1 -157.08 157.07 157.07 0 0 0 -114.88 50.25 136.91 136.91 0 0 0 -105.87 -50.25zm535.6 447.31a66.863 66.863 0 0 0 0.71164 1.1174 120.99 120.99 0 0 0 -2.4449 -0.1223 120.99 120.99 0 0 0 1.7332 -0.9951z" fill-opacity=".90196" fill="#828282"/>
   <circle cx="450" cy="727.36" r="275.67" fill="#f2f2f2"/>
  </g>
  <g transform="matrix(9.332 0 0 9.332 -482.86 -8349.5)">
   <g stroke="#e96464" fill="none">
    <path d="m76.55 958.76 9.1357 0.13257" stroke-width="0.6"/>
    <path d="m79.449 956.45 9.2548-0.0862" stroke-width=".5"/>
    <path d="m85.248 954.15c5.0671-0.0516 14.121-0.51595 9.1538 0.47139" stroke-width="0.35"/>
    <path d="m91.489 953.49c7.2459-0.32155 9.5485-0.17917 7.6919 0.35355" stroke-width="0.3"/>
    <path d="m98.963 953.02 2.1014 0.12153" stroke-width=".2"/>
    <path d="m82.296 954.97c5.0671-0.0516 13.277-0.32845 8.31 0.65889" stroke-width="0.45"/>
   </g>
   <g>
    <g fill="#8c0000" transform="matrix(1.9687 .041188 -.041188 1.9687 81.946 964.62)">
     <path d="m81.357 115.03c-2.4252 0.96924-5.5088 2.1847-6.1152 4.8984-0.60646 2.7138-0.0098 4.8454 1.1406 6.2168 0.59008 0.70341 1.4008 1.6872 3.0566 3.3633l8.0547 7.9923 12.51 12.51 10.836-10.846c1.66-1.6644 1.363-1.197 2.8008-2.8906 1.528 0.81506 3.0484 1.754 4.7383 2.1348 1.5024 0.33854 3.2811 1.0267 4.6191 0.0918 1.1783-1.2339 1.7252-2.5249 1.9863-4.6172 0.0141-4.1602-0.22995-8.0121-3.4395-8.7832-1.3481-0.36832-3.2217 0.34054-4.2734 1.4043-1.7868 1.7624-2.8658 2.8409-4.9453 4.918-1.4915 1.4939-2.9434 2.9492-2.9434 2.9492l-3.1309 3.125-6.25 6.25-12.498-12.5c-7.997-7.9942 3.3442 3.351-4.6504-4.6504l-3.2676-3.2559s-2.7747-2.5394-2.4277-4.0918c0.34693-1.5524 3.0489-2.7524 4.9316-3.4394 8.5183-3.1086 29.914-2.8323 35.675-3.2496 0 0-29.476-0.30276-36.405 2.4664zm38.129 15.545c0.3497-0.0345 0.69406 0.0655 0.95117 0.37109 0.83481 2.3094 0.94223 2.8291-2.1367 1.6113-0.97181-0.56954 0.13643-1.8788 1.1856-1.9824z" transform="matrix(.50772 -.010622 .010622 .50772 -42.934 -62.477)" fill="#c8c8c8"/>
    </g>
    <g fill="#000098" transform="matrix(.78251 -.62856 .62856 .78251 481.76 619.19)">
     <path d="m-512.64 42.173s2.5777 1.7702 3.3652-0.12423c0.08 0.14638 1.3062 1.2456 2.6737 1.0177 1.3737-0.27563 2.0676-0.8318 2.7593-2.1036 1.4375 0.8274 2.1642 1.9233 3.8958 1.1851 2.4174-1.3073 3.0427-4.3837 3.1038-6.912h-0.002c-0.0999-0.98041-0.37804-1.9979-0.87761-2.8527-0.55713 0.38092-1.2769 2.4475-1.6365 3.3937 1.2378 2.3101-0.63535 2.8832-2.2242 1.7727-1.4705-1.1102 0.18867-2.7554-0.0739-4.0904-1.8003-0.16834-1.6646 2.3929-2.4013 3.5436-1.3075 1.5788-2.8757 1.6908-3.814 1.3544-1.1777-0.15378-1.0897-1.2104-1.0897-1.2104s0.23057-1.8236-0.23546-1.1111c-0.64597 3.7845-2.3644 3.4805-2.3644 3.4805" fill="#646464"/>
    </g>
    <path d="m115.35 99.965c-6.3072-0.04273-19.769 0.28391-26.545 3.5918-2.333 1.1389-4.3847 2.9809-5.4746 5.5391-1.7776 4.1722 1.0508 6.5332 1.0508 6.5332l0.5918 0.5957 2.1602 2.1562c-2.9819 1.8936-5.5262 4.1395-6.3047 6.6094-0.9483 3.0088 0.4262 6.2641 3.5703 9.4043 1.043 1.0417 3.0781 3.1738 3.0781 3.1738l3.1543 3.0606 9.377-9.377 9.377 9.377 0.002-6.248-6.2578-6.2559 8.6562-8.6562-3.125-3.125-8.6523 8.6602s-2.2762-2.2708-2.6602-2.6543l-0.46094-0.48047-1.3379-1.416-2.4941-2.4551c3.48-2.88 6.943-5.5 6.943-5.5s-4.2978 1.3605-8.8496 3.6211l-3.0039-2.957-0.60742-0.67774s-2.6458-2.516-2.2988-4.0684c0.34693-1.5524 2.5179-3.2157 4.293-4.0801 8.8523-4.3107 28.308-3.9972 29.223-4.3086 0 0-1.3078-0.05411-3.4102-0.06836zm-25.678 20.953 2.6523 2.6484 1.4434 1.4414 3.1074 3.123l-6.249 6.25s0.000227 0.00041-3.1172-3.125c-3.1405-3.1485-1.543-6.1465-1.543-6.1465 0.05115-0.70181 1.6527-2.3407 3.7031-4.1856z" fill-rule="evenodd" transform="translate(0 852.36)" fill="#646464"/>
    <path d="m109.38 986.74s0.00022-0.0003 3.1176-3.1257c3.1405-3.1485 1.5429-6.1469 1.5429-6.1469-0.44215-1.9705-14.036-12.583-14.036-12.583s16.926 5.331 19.177 12.472c0.94831 3.0088-0.42669 6.2627-3.5708 9.4029-1.043 1.0416-3.0784 3.1748-3.0784 3.1748l-3.1538 3.0605z" fill="#e96464"/>
   </g>
  </g>
 </g>
</svg>
