<svg xmlns:rdf="http://www.w3.org/1999/02/22-rdf-syntax-ns#" xmlns="http://www.w3.org/2000/svg" height="650" width="900" version="1.1" xmlns:cc="http://creativecommons.org/ns#" xmlns:xlink="http://www.w3.org/1999/xlink" viewBox="0 0 900.00001 650.00001" xmlns:dc="http://purl.org/dc/elements/1.1/">
 <defs>
  <filter id="d" style="color-interpolation-filters:sRGB" height="1.1333" width="1.075" y="-.066667" x="-0.0375">
   <feGaussianBlur stdDeviation="14.28092"/>
  </filter>
  <radialGradient id="a" gradientUnits="userSpaceOnUse" cy="399.76" cx="-284.1" gradientTransform="matrix(.20869 0 0 .17753 366.6 653.02)" r="93.162">
   <stop stop-color="#0c0028" offset="0"/>
   <stop stop-color="#390000" stop-opacity=".97647" offset=".058845"/>
   <stop stop-opacity=".95631" offset=".058845"/>
   <stop offset=".16866"/>
   <stop stop-color="#323232" stop-opacity=".98824" offset=".44774"/>
   <stop stop-color="#0b000f" stop-opacity=".98039" offset=".63215"/>
   <stop stop-color="#252525" stop-opacity=".92718" offset=".79711"/>
   <stop stop-color="#060024" stop-opacity=".98058" offset=".86371"/>
   <stop stop-color="#000010" stop-opacity=".93204" offset=".96294"/>
   <stop stop-color="#360010" stop-opacity=".45098" offset="1"/>
   <stop stop-color="#500" stop-opacity="0" offset="1"/>
  </radialGradient>
  <pattern id="c" xlink:href="#b" patternTransform="matrix(4.5 0 0 3.25 .000087598 402.36)"/>
  <pattern id="b" width="199.99999" patternUnits="userSpaceOnUse" patternTransform="translate(-321.34 852.36)" height="200">
   <g transform="matrix(1.8422 0 0 .65655 -1106.9 -71.89)">
    <path d="m600.91 109.5h108.46v77.017h-108.46z" fill="#efd050"/>
    <path d="m600.89 261.23h108.46v77.017h-108.46z" fill="#edc92c"/>
    <path d="m600.88 337.1h108.57v77.017h-108.57z" fill="#dbb626"/>
    <path d="m600.88 185.36h108.46v77.017h-108.46z" fill="#f0d750"/>
   </g>
  </pattern>
 </defs>
 <g transform="translate(0 -402.36)">
  <rect height="650" width="900" y="402.36" x="0" fill="url(#c)"/>
  <circle cx="450" cy="727.36" r="275.67" fill="#00918c"/>
  <g transform="matrix(2.923 0 0 2.923 958.57 -1303.3)">
   <g transform="matrix(.18929 0 0 .18929 -274.65 566.19)" filter="url(#d)" fill="#313131">
    <g>
     <path d="m641.62 271.69 0.60351-0.95117h-0.89648l0.29297 0.95117z" transform="translate(0 308.27)"/>
     <path d="m901.22 692.18h-41.311l-73.91-80.201-71.553 204.43-72.832-236.46-72.631 114.58h-42.248a187.3 187.3 0 0 0 187.2 184.65 187.3 187.3 0 0 0 187.28 -187.01z"/>
     <path d="m713.94 196.33a187.3 187.3 0 0 0 -187.3 187.29 187.3 187.3 0 0 0 0.0937 2.6426h42.248l72.631-114.58-0.29297-0.95117h0.89648l-0.60351 0.95117 72.832 236.46 71.553-204.43 73.91 80.201h41.311a187.3 187.3 0 0 0 0.0137 -0.28321 187.3 187.3 0 0 0 -187.29 -187.29z" transform="translate(0 308.27)"/>
    </g>
    <path d="m331.13 687.32c-3.875 0.009-6.9664 2.9835-4.4087 11.119 1.5582 2.6869 4.7738 4.2497 7.7725 3.4471 11.727-6.3432 3.0946-14.578-3.3638-14.566z"/>
    <path d="m301.78 526.4c-29.172-0.0648-91.647 5.2095-129.75 39.337-9.3682 8.5331-6.3569 19.169-7.996 32.178-0.56401 17.681 1.3985 35.871 8.7959 52.05 86.152 6.5248 172.04 16.64 258.34 21.03 16.375-18.853 18.127-45.541 19.626-69.518 3.6951-16.457-1.6774-29.406-16.034-40.43-37.03-30.34-100.71-34.57-132.99-34.64z"/>
    <path d="m308.8 511.18c-24.696-0.1802-77.798 0.24673-109.61 19.751-15.247 9.3492-32.421 22.968-32.885 42.912 13.142-13.533 29.776-23.305 47.094-29.905 30.034-11.445 59.396-15.7 94.97-15.455 35.574 0.24488 80.463 7.0275 115.26 25.75 11.045 5.9432 20.034 16.705 27.291 26.199-0.75426-13.351-8.2751-25.549-17.534-34.335-37.81-28.72-83.5-34.54-124.58-34.92z"/>
    <path d="m433.85 667.68c6.1892-9.3979 0.44733-20.584-7.7167-26.48-9.9033-8.4319-22.619-12.072-34.743-15.9-22.421-7.0806-45.697-11.912-69.288-12.766-38.306-2.1611-77.374 0.59278-114.14 12.767-13.532 5.009-27.733 10.308-36.1 22.935 3.3542 9.2944 5.7336 18.899 14.12 25.809 26.043 21.293 7.7631-10.381 23.159-7.3706 39.265 13.982 76.539 40.022 117.79 37.774 29.997-2.3219 60.505-4.3403 87.681-18.286 2.6878-7.369 14.38-9.8916 18.69-17.703l0.5511-0.78038zm-98.472 12.838c15.755 0.85932 3.0093 26.614-6.4885 12.818-3.2451-5.0683 0.27683-12.973 6.4885-12.818z"/>
    <path d="m297.04 786.22c-54.17-3.1789-101.1-52.773-103.23-108-6.3084-14.39 5.1594-30.758 18.836-34.849 45.415-21.608 97.482-19.75 145.79-11.419 18.429 3.5865 36.632 10.368 51.549 22.235 12.274 16.298 7.1658 38.466 0.62292 56.052-17.127 46.057-64.506 80.877-113.56 75.979zm14.678-5.7093c32.718-0.67126 64.483-19.185 81.796-47.533 6.7956-6.7977 3.9899-14.364-3.2558-5.7423-26.524 29.852-67.11 43.278-105.87 42.381-7.378-8.0744-39.878-1.2676-1.4604 9.257 10.886 1.2133 17.4 2.0278 28.793 1.6377zm-89.495-54.583c1.5385-16.118-1.4926-37.831-11.524-53.342-13.328 3.1648-12.294 14.498-6.6753 30.879 3.0708 9.5201 8.4016 17.723 18.199 22.463zm85.724-14.725c-1.416 1.264 2.7321-0.21111 0 0z"/>
    <path d="m343.96 760.22 0.79182-7.5385c1.3232-12.494 2.2636-25.03 2.8193-37.582 0.58117-13.127 0.70914-26.522-3.0756-39.105-2.1223-7.0558-5.5376-13.852-10.765-19.045-6.6864-6.6427-15.993-10.256-25.374-11.173-4.9693-0.48591-10.037-0.25717-14.866 1.0156-6.6788 1.7607-12.802 5.5367-17.429 10.665-3.1289 3.4681-5.5832 7.5438-7.1765 11.935-3.3256 9.165-2.8155 19.198-2.8193 28.948-0.004 10.394-0.64127 20.777-0.94416 31.166-0.37156 12.745-0.23988 25.506 0.39463 38.241 17.138 2.6613 34.679 2.714 51.832 0.15567 6.5841-0.98197 13.143-2.3552 19.363-4.7266 2.4077-0.91791 4.7591-1.9834 7.0366-3.1886" fill-rule="evenodd"/>
    <g>
     <ellipse rx="22.261" ry="18.638" cy="726.61" cx="305.42"/>
     <ellipse rx="33.077" ry="25.952" cy="730.42" cx="306.36"/>
     <ellipse rx="19.442" ry="16.539" cy="723.99" cx="307.31"/>
     <circle cy="707.31" cx="486.89" r="22.915"/>
     <circle cy="692.96" cx="568.59" r="22.016"/>
     <circle cy="579.69" cx="641.33" r="22.016"/>
     <circle cy="816.17" cx="714.06" r="22.016"/>
     <circle cy="611.19" cx="786.79" r="22.016"/>
     <circle cy="707.31" cx="941.11" r="22.915"/>
     <circle cy="692.96" cx="859.52" r="22.016"/>
    </g>
    <g transform="matrix(0 -1 1 0 211.43 1082.9)">
     <path d="m155.9 652.28q-9.1398-11.996-9.1398-27.419 0-18.851 13.138-31.989 13.71-13.71 32.56-13.71 24.563 0 38.844 21.136 6.8548 10.854 15.995 20.565 48.555 58.266 124.53 64.55 75.403 5.7124 133.1-42.843 57.695-49.126 63.979-124.53 6.2836-75.974-42.843-133.1-48.555-57.695-124.53-63.979-94.254-7.9973-155.38-79.973-61.122-71.976-53.696-166.8 7.9973-94.254 79.973-155.38 64.55-55.41 148.52-55.41 99.395 0 173.66 81.687 12.567 14.852 22.278 30.847 6.8548 10.853 6.8548 24.563 0 18.851-13.71 32.56-13.138 13.138-31.989 13.138-21.707 0-31.989-13.71t-21.136-27.991q-37.13-43.414-93.112-47.984-56.552-4.5699-99.966 32.56-43.414 36.559-47.984 92.54-4.5699 56.552 31.989 99.966 37.13 43.414 93.112 47.984 113.68 9.711 187.37 95.968 64.55 76.546 64.55 173.66 0 13.138-1.1425 26.277-9.1398 113.1-95.397 186.22-77.117 65.692-175.37 65.692-122.82 0-211.36-97.11-11.996-13.138-21.707-27.991z" fill="#313131"/>
    </g>
   </g>
   <g transform="matrix(.18929 0 0 .18929 -274.65 566.19)">
    <g>
     <path d="m641.62 271.69 0.60351-0.95117h-0.89648l0.29297 0.95117z" fill-opacity=".92157" transform="translate(0 308.27)" fill="#21a79d"/>
     <path d="m901.22 692.18h-41.311l-73.91-80.201-71.553 204.43-72.832-236.46-72.631 114.58h-42.248a187.3 187.3 0 0 0 187.2 184.65 187.3 187.3 0 0 0 187.28 -187.01z" fill-opacity=".92157" fill="#ee6989"/>
     <path d="m713.94 196.33a187.3 187.3 0 0 0 -187.3 187.29 187.3 187.3 0 0 0 0.0937 2.6426h42.248l72.631-114.58-0.29297-0.95117h0.89648l-0.60351 0.95117 72.832 236.46 71.553-204.43 73.91 80.201h41.311a187.3 187.3 0 0 0 0.0137 -0.28321 187.3 187.3 0 0 0 -187.29 -187.29z" transform="translate(0 308.27)" fill="#71c7bc"/>
    </g>
    <path fill="#aaa" d="m331.13 687.32c-3.875 0.009-6.9664 2.9835-4.4087 11.119 1.5582 2.6869 4.7738 4.2497 7.7725 3.4471 11.727-6.3432 3.0946-14.578-3.3638-14.566z"/>
    <g>
     <path d="m301.78 526.4c-29.172-0.0648-91.647 5.2095-129.75 39.337-9.3682 8.5331-6.3569 19.169-7.996 32.178-0.56401 17.681 1.3985 35.871 8.7959 52.05 86.152 6.5248 172.04 16.64 258.34 21.03 16.375-18.853 18.127-45.541 19.626-69.518 3.6951-16.457-1.6774-29.406-16.034-40.43-37.03-30.34-100.71-34.57-132.99-34.64z" fill="#f0d750"/>
     <path d="m308.8 511.18c-24.696-0.1802-77.798 0.24673-109.61 19.751-15.247 9.3492-32.421 22.968-32.885 42.912 13.142-13.533 29.776-23.305 47.094-29.905 30.034-11.445 59.396-15.7 94.97-15.455 35.574 0.24488 80.463 7.0275 115.26 25.75 11.045 5.9432 20.034 16.705 27.291 26.199-0.75426-13.351-8.2751-25.549-17.534-34.335-37.81-28.72-83.5-34.54-124.58-34.92z" fill="#dbb626"/>
     <path d="m433.85 667.68c6.1892-9.3979 0.44733-20.584-7.7167-26.48-9.9033-8.4319-22.619-12.072-34.743-15.9-22.421-7.0806-45.697-11.912-69.288-12.766-38.306-2.1611-77.374 0.59278-114.14 12.767-13.532 5.009-27.733 10.308-36.1 22.935 3.3542 9.2944 5.7336 18.899 14.12 25.809 26.043 21.293 7.7631-10.381 23.159-7.3706 39.265 13.982 76.539 40.022 117.79 37.774 29.997-2.3219 60.505-4.3403 87.681-18.286 2.6878-7.369 14.38-9.8916 18.69-17.703l0.5511-0.78038zm-98.472 12.838c15.755 0.85932 3.0093 26.614-6.4885 12.818-3.2451-5.0683 0.27683-12.973 6.4885-12.818z" fill="#dbb626"/>
    </g>
    <path d="m297.04 786.22c-54.17-3.1789-101.1-52.773-103.23-108-6.3084-14.39 5.1594-30.758 18.836-34.849 45.415-21.608 97.482-19.75 145.79-11.419 18.429 3.5865 36.632 10.368 51.549 22.235 12.274 16.298 7.1658 38.466 0.62292 56.052-17.127 46.057-64.506 80.877-113.56 75.979zm14.678-5.7093c32.718-0.67126 64.483-19.185 81.796-47.533 6.7956-6.7977 3.9899-14.364-3.2558-5.7423-26.524 29.852-67.11 43.278-105.87 42.381-7.378-8.0744-39.878-1.2676-1.4604 9.257 10.886 1.2133 17.4 2.0278 28.793 1.6377zm-89.495-54.583c1.5385-16.118-1.4926-37.831-11.524-53.342-13.328 3.1648-12.294 14.498-6.6753 30.879 3.0708 9.5201 8.4016 17.723 18.199 22.463zm85.724-14.725c-1.416 1.264 2.7321-0.21111 0 0z" fill-opacity=".96117" fill="#6ec9be"/>
    <g>
     <path d="m343.96 760.22 0.79182-7.5385c1.3232-12.494 2.2636-25.03 2.8193-37.582 0.58117-13.127 0.70914-26.522-3.0756-39.105-2.1223-7.0558-5.5376-13.852-10.765-19.045-6.6864-6.6427-15.993-10.256-25.374-11.173-4.9693-0.48591-10.037-0.25717-14.866 1.0156-6.6788 1.7607-12.802 5.5367-17.429 10.665-3.1289 3.4681-5.5832 7.5438-7.1765 11.935-3.3256 9.165-2.8155 19.198-2.8193 28.948-0.004 10.394-0.64127 20.777-0.94416 31.166-0.37156 12.745-0.23988 25.506 0.39463 38.241 17.138 2.6613 34.679 2.714 51.832 0.15567 6.5841-0.98197 13.143-2.3552 19.363-4.7266 2.4077-0.91791 4.7591-1.9834 7.0366-3.1886" fill-rule="evenodd" stroke="#212829" stroke-width=".95216px" fill="#0e2c2d"/>
     <ellipse stroke-linejoin="round" stroke-linecap="round" rx="22.261" ry="18.638" stroke="#141414" cy="726.61" cx="305.42" stroke-width="4.8199" fill="none"/>
     <ellipse stroke-linejoin="round" stroke-linecap="round" rx="33.077" ry="25.952" stroke="#29636d" cy="730.42" cx="306.36" stroke-width="4.8334" fill="none"/>
    </g>
    <ellipse rx="19.442" ry="16.539" cy="723.99" cx="307.31" fill="url(#a)"/>
    <g fill="#fff">
     <circle cx="486.89" cy="707.31" r="22.915"/>
     <circle cx="568.59" cy="692.96" r="22.016"/>
     <circle cx="641.33" cy="579.69" r="22.016"/>
     <circle cx="714.06" cy="816.17" r="22.016"/>
     <circle cx="786.79" cy="611.19" r="22.016"/>
     <circle cx="941.11" cy="707.31" r="22.915"/>
     <circle cx="859.52" cy="692.96" r="22.016"/>
    </g>
    <g fill="#283c50" transform="matrix(0 -1 1 0 211.43 1082.9)">
     <path fill="#283c50" d="m155.9 652.28q-9.1398-11.996-9.1398-27.419 0-18.851 13.138-31.989 13.71-13.71 32.56-13.71 24.563 0 38.844 21.136 6.8548 10.854 15.995 20.565 48.555 58.266 124.53 64.55 75.403 5.7124 133.1-42.843 57.695-49.126 63.979-124.53 6.2836-75.974-42.843-133.1-48.555-57.695-124.53-63.979-94.254-7.9973-155.38-79.973-61.122-71.976-53.696-166.8 7.9973-94.254 79.973-155.38 64.55-55.41 148.52-55.41 99.395 0 173.66 81.687 12.567 14.852 22.278 30.847 6.8548 10.853 6.8548 24.563 0 18.851-13.71 32.56-13.138 13.138-31.989 13.138-21.707 0-31.989-13.71t-21.136-27.991q-37.13-43.414-93.112-47.984-56.552-4.5699-99.966 32.56-43.414 36.559-47.984 92.54-4.5699 56.552 31.989 99.966 37.13 43.414 93.112 47.984 113.68 9.711 187.37 95.968 64.55 76.546 64.55 173.66 0 13.138-1.1425 26.277-9.1398 113.1-95.397 186.22-77.117 65.692-175.37 65.692-122.82 0-211.36-97.11-11.996-13.138-21.707-27.991z"/>
    </g>
   </g>
  </g>
 </g>
</svg>
