<?xml version="1.0" encoding="UTF-8" standalone="no"?>
<!-- Created with Inkscape (http://www.inkscape.org/) -->

<svg
   xmlns:dc="http://purl.org/dc/elements/1.1/"
   xmlns:cc="http://creativecommons.org/ns#"
   xmlns:rdf="http://www.w3.org/1999/02/22-rdf-syntax-ns#"
   xmlns:svg="http://www.w3.org/2000/svg"
   xmlns="http://www.w3.org/2000/svg"
   xmlns:sodipodi="http://sodipodi.sourceforge.net/DTD/sodipodi-0.dtd"
   xmlns:inkscape="http://www.inkscape.org/namespaces/inkscape"
   width="152"
   height="152"
   viewBox="0 0 152 152"
   id="svg9394"
   version="1.1"
   inkscape:version="0.91 r13725"
   inkscape:export-filename="/home/akaifi/Projects/akaifi.github.io/img/ficon/favicon-152.png"
   inkscape:export-xdpi="90.001167"
   inkscape:export-ydpi="90.001167"
   sodipodi:docname="favicon-152.svg">
  <defs
     id="defs9396" />
  <sodipodi:namedview
     id="base"
     pagecolor="#ffffff"
     bordercolor="#666666"
     borderopacity="1.0"
     inkscape:pageopacity="0.0"
     inkscape:pageshadow="2"
     inkscape:zoom="2.9013158"
     inkscape:cx="76"
     inkscape:cy="76"
     inkscape:document-units="px"
     inkscape:current-layer="layer1"
     showgrid="false"
     units="px"
     inkscape:window-width="960"
     inkscape:window-height="1170"
     inkscape:window-x="2040"
     inkscape:window-y="673"
     inkscape:window-maximized="0" />
  <metadata
     id="metadata9399">
    <rdf:RDF>
      <cc:Work
         rdf:about="">
        <dc:format>image/svg+xml</dc:format>
        <dc:type
           rdf:resource="http://purl.org/dc/dcmitype/StillImage" />
        <dc:title></dc:title>
      </cc:Work>
    </rdf:RDF>
  </metadata>
  <g
     inkscape:label="Layer 1"
     inkscape:groupmode="layer"
     id="layer1"
     transform="translate(0,-900.36216)">
    <path
       style="fill:#be284b;fill-opacity:1;fill-rule:nonzero;stroke:none;stroke-opacity:1"
       d="m 84.272874,900.36327 5.367373,5.26574 a 7.7435542,7.7171841 0 0 1 0.0149,10.98242 l -18.965029,18.70993 c 2.190575,1.24745 4.762602,2.78612 7.431277,4.39357 9.833589,-4.70539 19.901418,-7.75128 29.139697,-7.75128 8.6934,0 16.33256,4.20738 23.40497,9.48967 7.07237,5.28222 13.65447,11.97741 19.43839,18.59083 0.45907,0.52493 0.90427,1.04795 1.35306,1.57165 A 76.463341,76.20294 0 0 0 84.272814,900.36327 Z m -21.254415,0.80217 A 76.463341,76.20294 0 0 0 0.00191971,976.1584 76.463341,76.20294 0 0 0 76.465247,1052.3613 76.463341,76.20294 0 0 0 151.99669,987.38791 c -3.33351,-4.64648 -8.07343,-10.92316 -13.56627,-17.2037 -5.338,-6.10353 -11.35437,-12.1253 -17.05193,-16.38062 -5.6975,-4.25548 -11.00153,-6.40588 -14.11733,-6.40588 -3.3156,0 -7.959297,1.18635 -12.953969,2.86805 6.625579,4.643 13.190339,9.66295 18.527419,15.0426 6.08899,6.13766 11.39655,12.55874 11.42022,21.26691 0.0202,7.45452 -3.52802,13.77263 -7.84794,19.16683 -4.3199,5.3941 -9.68672,10.0697 -14.95068,14.0707 -10.527866,8.0024 -20.925854,13.3462 -20.925854,13.3462 a 7.7435542,7.7171841 0 0 1 -7.361089,-0.1282 c 0,0 -9.758127,-5.4528 -19.635544,-13.4515 -4.938711,-3.9993 -9.975317,-8.6483 -14.027738,-13.9444 -4.052421,-5.296 -7.383489,-11.40592 -7.38349,-18.59529 2e-6,-7.65315 3.928365,-14.10264 9.024763,-20.14615 5.096399,-6.04342 11.770157,-11.72972 19.169598,-16.8063 0.782659,-0.537 1.631581,-0.98083 2.426813,-1.50469 -4.853135,-2.75184 -8.424408,-4.62878 -8.424408,-4.62878 a 7.7435542,7.7171841 0 0 1 -1.887689,-12.33681 l 20.755616,-20.47507 -10.168729,-9.97637 z m 14.61166,56.48992 c -2.913358,1.61094 -5.823955,3.28482 -8.533422,5.14367 -6.497347,4.45772 -12.244592,9.45919 -16.094635,14.02466 -3.850044,4.5655 -5.394249,8.64708 -5.394249,10.21592 0,2.03275 1.307158,5.44251 4.211456,9.23817 2.904299,3.79572 7.143036,7.81122 11.479954,11.32322 5.790097,4.689 10.577523,7.7628 13.82314,9.75 3.416193,-1.9258 8.620206,-5.0045 14.941707,-9.8094 4.628774,-3.5184 9.15032,-7.56809 12.24011,-11.42608 3.08978,-3.85805 4.47145,-7.31964 4.46533,-9.49861 -0.002,-0.92514 -2.03614,-5.50809 -6.9459,-10.45706 -4.909753,-4.94897 -11.92629,-10.34329 -19.012795,-15.16313 -1.759814,-1.19698 -3.444054,-2.22327 -5.180696,-3.34136 z"
       id="path4150"
       inkscape:connector-curvature="0" />
    <circle
       style="fill:#f2f2f2;fill-opacity:1;stroke:none;stroke-width:91.94599915;stroke-linecap:butt;stroke-linejoin:miter;stroke-miterlimit:4;stroke-dasharray:none;stroke-opacity:1"
       id="path5855"
       cx="777.54822"
       cy="690.36542"
       r="14.208416"
       inkscape:export-xdpi="100.15573"
       inkscape:export-ydpi="100.15573"
       transform="matrix(0.70710696,0.7071066,-0.70710696,0.7071066,0,0)"
       inkscape:export-filename="/home/akaifi/WWW/akaifiIcon1.png" />
  </g>
</svg>
