<?xml version="1.0" encoding="UTF-8" standalone="no"?>
<!-- Created with Inkscape (http://www.inkscape.org/) -->

<svg
   xmlns:dc="http://purl.org/dc/elements/1.1/"
   xmlns:cc="http://creativecommons.org/ns#"
   xmlns:rdf="http://www.w3.org/1999/02/22-rdf-syntax-ns#"
   xmlns:svg="http://www.w3.org/2000/svg"
   xmlns="http://www.w3.org/2000/svg"
   xmlns:sodipodi="http://sodipodi.sourceforge.net/DTD/sodipodi-0.dtd"
   xmlns:inkscape="http://www.inkscape.org/namespaces/inkscape"
   width="120"
   height="120"
   viewBox="0 0 120 120"
   id="svg8230"
   version="1.1"
   inkscape:version="0.91 r13725"
   inkscape:export-filename="/home/akaifi/Projects/akaifi.github.io/img/ficon/favicon-120.png"
   inkscape:export-xdpi="90"
   inkscape:export-ydpi="90"
   sodipodi:docname="favicon-120.svg">
  <defs
     id="defs8232" />
  <sodipodi:namedview
     id="base"
     pagecolor="#ffffff"
     bordercolor="#666666"
     borderopacity="1.0"
     inkscape:pageopacity="0.0"
     inkscape:pageshadow="2"
     inkscape:zoom="3.675"
     inkscape:cx="60"
     inkscape:cy="60"
     inkscape:document-units="px"
     inkscape:current-layer="layer1"
     showgrid="false"
     units="px"
     inkscape:window-width="960"
     inkscape:window-height="1170"
     inkscape:window-x="2040"
     inkscape:window-y="673"
     inkscape:window-maximized="0" />
  <metadata
     id="metadata8235">
    <rdf:RDF>
      <cc:Work
         rdf:about="">
        <dc:format>image/svg+xml</dc:format>
        <dc:type
           rdf:resource="http://purl.org/dc/dcmitype/StillImage" />
        <dc:title></dc:title>
      </cc:Work>
    </rdf:RDF>
  </metadata>
  <g
     inkscape:label="Layer 1"
     inkscape:groupmode="layer"
     id="layer1"
     transform="translate(0,-932.36216)">
    <path
       style="fill:#be284b;fill-opacity:1;fill-rule:nonzero;stroke:none;stroke-opacity:1"
       d="m 66.531784,932.36277 4.237409,4.15721 a 6.113347,6.0925652 0 0 1 0.01176,8.67041 l -14.97243,14.7711 c 1.729406,0.98486 3.75996,2.19962 5.866815,3.46867 7.763379,-3.71481 15.711687,-6.11949 23.005086,-6.11949 6.863228,0 12.89415,3.32165 18.477636,7.49189 5.58347,4.17024 10.77988,9.45595 15.34614,14.67711 0.36243,0.41442 0.7139,0.82734 1.0682,1.2408 A 60.365942,60.160724 0 0 0 66.531736,932.36277 Z M 49.751942,932.9961 A 60.365942,60.160724 0 0 0 0.00192029,992.20157 60.365942,60.160724 0 0 0 60.367852,1052.3622 60.365942,60.160724 0 0 0 119.99808,1001.0671 c -2.63173,-3.66838 -6.37378,-8.62368 -10.71024,-13.58204 -4.21423,-4.81863 -8.964,-9.57269 -13.462076,-12.93225 -4.498043,-3.35954 -8.685438,-5.05725 -11.145292,-5.05725 -2.617575,0 -6.283666,0.93657 -10.22684,2.26427 5.230733,3.66555 10.413449,7.62871 14.626949,11.87584 4.807109,4.84557 8.997283,9.91486 9.015983,16.78973 0.0159,5.8853 -2.78528,10.8734 -6.195755,15.1319 -3.410464,4.2585 -7.647436,7.9497 -11.803199,11.1085 -8.311496,6.3178 -16.520453,10.5366 -16.520453,10.5366 a 6.113347,6.0925652 0 0 1 -5.811405,-0.1013 c 0,0 -7.7038,-4.3048 -15.50178,-10.6197 -3.89899,-3.1574 -7.875271,-6.8274 -11.074556,-11.0087 -3.199285,-4.1812 -5.829088,-9.0049 -5.829088,-14.6806 0,-6.04205 3.101348,-11.1338 7.124831,-15.90503 4.023483,-4.77116 9.292255,-9.26039 15.133931,-13.26824 0.61789,-0.42394 1.288093,-0.77435 1.915907,-1.18796 -3.831431,-2.1725 -6.650861,-3.65428 -6.650861,-3.65428 a 6.113347,6.0925652 0 0 1 -1.490285,-9.7397 L 57.7799,940.87224 49.751942,932.9961 Z m 11.535549,44.59766 c -2.300029,1.27182 -4.597873,2.59331 -6.73693,4.06084 -5.129497,3.51928 -9.666807,7.46779 -12.706326,11.07219 -3.039513,3.60438 -4.258625,6.82673 -4.258625,8.06531 0,1.6048 1.031969,4.2968 3.324845,7.2933 2.292871,2.9966 5.63925,6.1668 9.063142,8.9396 4.571138,3.7017 8.350694,6.1284 10.913033,7.6972 2.697001,-1.5202 6.805443,-3.9509 11.796113,-7.7443 3.654307,-2.7777 7.223962,-5.9747 9.663272,-9.0206 2.439299,-3.0458 3.530097,-5.7787 3.525273,-7.499 -0.0018,-0.73027 -1.607493,-4.34847 -5.483623,-8.25559 -3.876131,-3.90711 -9.415518,-8.16583 -15.010141,-11.971 -1.38933,-0.945 -2.718997,-1.75523 -4.090033,-2.63795 z"
       id="path4150"
       inkscape:connector-curvature="0" />
    <circle
       style="fill:#f2f2f2;fill-opacity:1;stroke:none;stroke-width:91.94599915;stroke-linecap:butt;stroke-linejoin:miter;stroke-miterlimit:4;stroke-dasharray:none;stroke-opacity:1"
       id="path5855"
       cx="770.51215"
       cy="701.68268"
       r="11.217231"
       inkscape:export-xdpi="100.15573"
       inkscape:export-ydpi="100.15573"
       transform="matrix(0.70710482,0.70710874,-0.70710482,0.70710874,0,0)"
       inkscape:export-filename="/home/akaifi/WWW/akaifiIcon1.png" />
  </g>
</svg>
