<?xml version="1.0" encoding="UTF-8" standalone="no"?>
<!-- Created with Inkscape (http://www.inkscape.org/) -->

<svg
   xmlns:dc="http://purl.org/dc/elements/1.1/"
   xmlns:cc="http://creativecommons.org/ns#"
   xmlns:rdf="http://www.w3.org/1999/02/22-rdf-syntax-ns#"
   xmlns:svg="http://www.w3.org/2000/svg"
   xmlns="http://www.w3.org/2000/svg"
   xmlns:sodipodi="http://sodipodi.sourceforge.net/DTD/sodipodi-0.dtd"
   xmlns:inkscape="http://www.inkscape.org/namespaces/inkscape"
   width="72"
   height="72"
   viewBox="0 0 72.000001 72.000001"
   id="svg7066"
   version="1.1"
   inkscape:version="0.91 r13725"
   inkscape:export-filename="/home/akaifi/Projects/akaifi.github.io/img/ficon/favicon-72.png"
   inkscape:export-xdpi="89.997925"
   inkscape:export-ydpi="89.997925"
   sodipodi:docname="favicon-72.svg">
  <defs
     id="defs7068" />
  <sodipodi:namedview
     id="base"
     pagecolor="#ffffff"
     bordercolor="#666666"
     borderopacity="1.0"
     inkscape:pageopacity="0.0"
     inkscape:pageshadow="2"
     inkscape:zoom="6.125"
     inkscape:cx="36"
     inkscape:cy="36"
     inkscape:document-units="px"
     inkscape:current-layer="layer1"
     showgrid="false"
     units="px"
     inkscape:window-width="960"
     inkscape:window-height="1170"
     inkscape:window-x="2040"
     inkscape:window-y="673"
     inkscape:window-maximized="0" />
  <metadata
     id="metadata7071">
    <rdf:RDF>
      <cc:Work
         rdf:about="">
        <dc:format>image/svg+xml</dc:format>
        <dc:type
           rdf:resource="http://purl.org/dc/dcmitype/StillImage" />
        <dc:title></dc:title>
      </cc:Work>
    </rdf:RDF>
  </metadata>
  <g
     inkscape:label="Layer 1"
     inkscape:groupmode="layer"
     id="layer1"
     transform="translate(0,-980.36216)">
    <path
       style="fill:#be284b;fill-opacity:1;fill-rule:nonzero;stroke:none;stroke-opacity:1"
       d="m 39.920164,980.36184 2.542534,2.49442 a 3.6681351,3.6556416 0 0 1 0.007,5.2024 l -8.983768,8.86288 c 1.03768,0.59094 2.256054,1.31987 3.520209,2.08123 4.65819,-2.22887 9.42734,-3.6718 13.803531,-3.6718 4.118079,0 7.736761,1.99304 11.086967,4.49533 3.350197,2.5022 6.46815,5.6736 9.208005,8.8064 0.217463,0.2486 0.428351,0.4965 0.64094,0.7445 A 36.220817,36.097446 0 0 0 39.920136,980.36184 Z m -10.068252,0.38002 A 36.220817,36.097446 0 0 0 8.6543e-4,1016.266 a 36.220817,36.097446 0 0 0 36.22081157,36.0975 36.220817,36.097446 0 0 0 35.779379,-30.778 c -1.579092,-2.201 -3.8244,-5.1742 -6.426367,-8.1494 -2.528624,-2.8913 -5.378587,-5.7437 -8.077526,-7.7595 -2.698921,-2.0159 -5.211445,-3.0345 -6.687408,-3.0345 -1.570601,0 -3.770331,0.5619 -6.136317,1.3586 3.138548,2.1994 6.248286,4.5773 8.776473,7.1258 2.884365,2.9073 5.398557,5.949 5.409777,10.0741 0.0095,3.5312 -1.671229,6.5242 -3.717582,9.0794 -2.046349,2.555 -4.588619,4.7699 -7.082164,6.6653 -4.98707,3.7908 -9.912614,6.322 -9.912614,6.322 a 3.6681351,3.6556416 0 0 1 -3.486964,-0.061 c 0,0 -4.62244,-2.583 -9.30139,-6.372 -2.339476,-1.8944 -4.725326,-4.0967 -6.644964,-6.6055 -1.919639,-2.5087 -3.497571,-5.403 -3.497572,-8.8086 10e-7,-3.6254 1.860875,-6.6804 4.275046,-9.5432 2.414173,-2.8627 5.575546,-5.5564 9.080671,-7.9612 0.370747,-0.2543 0.772883,-0.4646 1.149585,-0.7128 -2.298938,-1.3034 -3.990656,-2.1927 -3.990656,-2.1927 a 3.6681351,3.6556416 0 0 1 -0.894202,-5.84386 l 9.83197,-9.69907 -4.81694,-4.72582 z m 6.921566,26.75934 c -1.380063,0.7631 -2.758817,1.556 -4.042296,2.4365 -3.077805,2.1117 -5.800284,4.4808 -7.624057,6.6436 -1.823773,2.1626 -2.555266,4.0961 -2.555266,4.8392 0,0.963 0.619205,2.5782 1.994976,4.3762 1.37577,1.798 3.383667,3.7002 5.438074,5.3639 2.742778,2.221 5.010589,3.6772 6.548046,4.6185 1.618257,-0.9122 4.083406,-2.3706 7.077913,-4.6468 2.192659,-1.6666 4.334526,-3.585 5.798164,-5.4124 1.46363,-1.8277 2.11813,-3.4674 2.115237,-4.4996 -0.001,-0.4382 -0.96453,-2.6091 -3.290289,-4.9536 -2.325759,-2.3443 -5.649505,-4.8995 -9.006395,-7.1827 -0.833627,-0.5671 -1.631454,-1.0532 -2.454107,-1.5828 z"
       id="path4150"
       inkscape:connector-curvature="0" />
    <circle
       style="fill:#f2f2f2;fill-opacity:1;stroke:none;stroke-width:91.94599915;stroke-linecap:butt;stroke-linejoin:miter;stroke-miterlimit:4;stroke-dasharray:none;stroke-opacity:1"
       id="path5855"
       cx="759.96307"
       cy="718.66455"
       r="6.7305493"
       inkscape:export-xdpi="100.15573"
       inkscape:export-ydpi="100.15573"
       transform="matrix(0.70710713,0.70710643,-0.70710713,0.70710643,0,0)"
       inkscape:export-filename="/home/akaifi/WWW/akaifiIcon1.png" />
  </g>
</svg>
