<?xml version="1.0" encoding="UTF-8" standalone="no"?>
<!-- Created with Inkscape (http://www.inkscape.org/) -->

<svg
   xmlns:dc="http://purl.org/dc/elements/1.1/"
   xmlns:cc="http://creativecommons.org/ns#"
   xmlns:rdf="http://www.w3.org/1999/02/22-rdf-syntax-ns#"
   xmlns:svg="http://www.w3.org/2000/svg"
   xmlns="http://www.w3.org/2000/svg"
   xmlns:sodipodi="http://sodipodi.sourceforge.net/DTD/sodipodi-0.dtd"
   xmlns:inkscape="http://www.inkscape.org/namespaces/inkscape"
   width="57"
   height="57"
   viewBox="0 0 57.000001 57.000001"
   id="svg5902"
   version="1.1"
   inkscape:version="0.91 r13725"
   inkscape:export-filename="/home/akaifi/Projects/akaifi.github.io/img/ficon/favicon-57.png"
   inkscape:export-xdpi="90"
   inkscape:export-ydpi="90"
   sodipodi:docname="favicon-57.svg">
  <defs
     id="defs5904" />
  <sodipodi:namedview
     id="base"
     pagecolor="#ffffff"
     bordercolor="#666666"
     borderopacity="1.0"
     inkscape:pageopacity="0.0"
     inkscape:pageshadow="2"
     inkscape:zoom="4"
     inkscape:cx="20.6025"
     inkscape:cy="81.692796"
     inkscape:document-units="px"
     inkscape:current-layer="layer1"
     showgrid="false"
     units="px"
     inkscape:window-width="960"
     inkscape:window-height="1170"
     inkscape:window-x="2040"
     inkscape:window-y="673"
     inkscape:window-maximized="0" />
  <metadata
     id="metadata5907">
    <rdf:RDF>
      <cc:Work
         rdf:about="">
        <dc:format>image/svg+xml</dc:format>
        <dc:type
           rdf:resource="http://purl.org/dc/dcmitype/StillImage" />
        <dc:title></dc:title>
      </cc:Work>
    </rdf:RDF>
  </metadata>
  <g
     inkscape:label="Layer 1"
     inkscape:groupmode="layer"
     id="layer1"
     transform="translate(0,-995.36216)">
    <path
       style="fill:#be284b;fill-opacity:1;fill-rule:nonzero;stroke:none;stroke-opacity:1"
       d="m 31.606211,995.36188 2.01304,1.97312 a 2.9042302,2.8916527 0 0 1 0.0056,4.1152 l -7.112857,7.0105 c 0.821578,0.4675 1.786218,1.044 2.787108,1.6464 3.688101,-1.7631 7.464055,-2.9045 10.928885,-2.9045 3.260472,0 6.125546,1.5766 8.778061,3.556 2.652503,1.9791 5.121128,4.4879 7.290397,6.9658 0.172174,0.1967 0.339145,0.3928 0.507461,0.589 A 28.677677,28.553477 0 0 0 31.606189,995.36188 Z m -7.971496,0.30058 A 28.677677,28.553477 0 0 0 2.7881999e-4,1023.7625 28.677677,28.553477 0 0 0 28.67795,1052.316 28.677677,28.553477 0 0 0 57.006119,1027.9702 c -1.25024,-1.741 -3.027952,-4.0928 -5.08805,-6.4462 -2.002025,-2.287 -4.258471,-4.5434 -6.395346,-6.1379 -2.136859,-1.5945 -4.126138,-2.4004 -5.294727,-2.4004 -1.243514,0 -2.985142,0.4446 -4.858401,1.0748 2.484933,1.7397 4.947053,3.6207 6.948735,5.6366 2.283683,2.2996 4.274284,4.7057 4.283168,7.9686 0.0075,2.7933 -1.323188,5.1608 -2.943381,7.1819 -1.620187,2.0211 -3.633019,3.7732 -5.607272,5.2725 -3.948492,2.9984 -7.848271,5.0007 -7.848271,5.0007 a 2.9042302,2.8916527 0 0 1 -2.760785,-0.048 c 0,0 -3.6598,-2.0431 -7.364335,-5.0402 -1.852273,-1.4985 -3.741257,-3.2406 -5.261125,-5.225 -1.519865,-1.9845 -2.769185,-4.2739 -2.769185,-6.9677 0,-2.8677 1.473337,-5.2843 3.384749,-7.5488 1.911411,-2.2644 4.414412,-4.3952 7.189583,-6.2975 0.293538,-0.2011 0.611927,-0.3674 0.910178,-0.5638 -1.820174,-1.031 -3.159585,-1.7344 -3.159585,-1.7344 a 2.9042302,2.8916527 0 0 1 -0.707982,-4.6226 l 7.784423,-7.67203 -3.813795,-3.73822 z m 5.480122,21.16694 c -1.092658,0.6036 -2.184281,1.2309 -3.200472,1.9272 -2.436839,1.6705 -4.59235,3.5444 -6.036313,5.2553 -1.443963,1.7106 -2.023119,3.2401 -2.023119,3.8279 0,0.7616 0.490251,2.0393 1.57951,3.4615 1.089264,1.4223 2.679007,2.9269 4.305571,4.243 2.171586,1.7568 3.967116,2.9087 5.184388,3.6532 1.281248,-0.7215 3.23302,-1.8752 5.603907,-3.6755 1.73603,-1.3183 3.431843,-2.8358 4.590672,-4.2813 1.158823,-1.4457 1.677022,-2.7428 1.674729,-3.5594 -8.55e-4,-0.3465 -0.763662,-2.0639 -2.605071,-3.9183 -1.841409,-1.8543 -4.472973,-3.8756 -7.130775,-5.6815 -0.660021,-0.4486 -1.291697,-0.8332 -1.943027,-1.2521 z"
       id="path4150"
       inkscape:connector-curvature="0" />
    <circle
       style="fill:#f2f2f2;fill-opacity:1;stroke:none;stroke-width:91.94599915;stroke-linecap:butt;stroke-linejoin:miter;stroke-miterlimit:4;stroke-dasharray:none;stroke-opacity:1"
       id="path5855"
       cx="756.97247"
       cy="724.29022"
       r="5.3264122"
       inkscape:export-xdpi="100.15573"
       inkscape:export-ydpi="100.15573"
       transform="matrix(0.70743529,0.70677812,-0.70743529,0.70677812,0,0)"
       inkscape:export-filename="/home/akaifi/WWW/akaifiIcon1.png" />
  </g>
</svg>
