<?xml version="1.0" encoding="UTF-8" standalone="no"?>
<!-- Created with Inkscape (http://www.inkscape.org/) -->

<svg
   xmlns:dc="http://purl.org/dc/elements/1.1/"
   xmlns:cc="http://creativecommons.org/ns#"
   xmlns:rdf="http://www.w3.org/1999/02/22-rdf-syntax-ns#"
   xmlns:svg="http://www.w3.org/2000/svg"
   xmlns="http://www.w3.org/2000/svg"
   xmlns:sodipodi="http://sodipodi.sourceforge.net/DTD/sodipodi-0.dtd"
   xmlns:inkscape="http://www.inkscape.org/namespaces/inkscape"
   width="48"
   height="48"
   viewBox="0 0 48 48.000001"
   id="svg5320"
   version="1.1"
   inkscape:version="0.91 r13725"
   inkscape:export-filename="/home/akaifi/Projects/akaifi.github.io/img/ficon/favicon-48.png"
   inkscape:export-xdpi="90"
   inkscape:export-ydpi="90"
   sodipodi:docname="favicon-48.svg">
  <defs
     id="defs5322" />
  <sodipodi:namedview
     id="base"
     pagecolor="#ffffff"
     bordercolor="#666666"
     borderopacity="1.0"
     inkscape:pageopacity="0.0"
     inkscape:pageshadow="2"
     inkscape:zoom="8"
     inkscape:cx="23.826483"
     inkscape:cy="41.026975"
     inkscape:document-units="px"
     inkscape:current-layer="layer1"
     showgrid="false"
     units="px"
     inkscape:window-width="960"
     inkscape:window-height="1170"
     inkscape:window-x="2040"
     inkscape:window-y="673"
     inkscape:window-maximized="0" />
  <metadata
     id="metadata5325">
    <rdf:RDF>
      <cc:Work
         rdf:about="">
        <dc:format>image/svg+xml</dc:format>
        <dc:type
           rdf:resource="http://purl.org/dc/dcmitype/StillImage" />
        <dc:title></dc:title>
      </cc:Work>
    </rdf:RDF>
  </metadata>
  <g
     inkscape:label="Layer 1"
     inkscape:groupmode="layer"
     id="layer1"
     transform="translate(0,-1004.3622)">
    <path
       style="fill:#be284b;fill-opacity:1;fill-rule:nonzero;stroke:none;stroke-opacity:1"
       d="m 26.613442,1004.3635 1.694951,1.6627 a 2.4453171,2.4369909 0 0 1 0.0047,3.4681 l -5.988916,5.9085 c 0.691755,0.3939 1.503969,0.8799 2.346703,1.3873 3.105324,-1.4858 6.284621,-2.4476 9.201954,-2.4476 2.745266,0 5.157614,1.3285 7.390989,2.9967 2.233369,1.6679 4.311913,3.7823 6.138403,5.8707 0.144969,0.1658 0.285556,0.3309 0.427276,0.4962 a 24.146161,24.063943 0 0 0 -21.21608,-19.3426 z m -6.711877,0.2533 a 24.146161,24.063943 0 0 0 -19.89983101,23.6817 24.146161,24.063943 0 0 0 24.14615801,24.064 24.146161,24.063943 0 0 0 23.851882,-20.5177 c -1.052682,-1.4674 -2.549489,-3.4494 -4.284059,-5.4328 -1.685675,-1.9273 -3.585569,-3.8289 -5.384783,-5.1729 -1.799203,-1.3438 -3.474145,-2.0228 -4.458079,-2.0228 -1.047021,0 -2.513443,0.3746 -4.090699,0.9057 2.092275,1.4663 4.165342,3.0514 5.850729,4.7503 1.922825,1.9382 3.598879,3.9658 3.606361,6.7158 0.0064,2.3542 -1.114106,4.3493 -2.478281,6.0526 -1.364173,1.7034 -3.058948,3.18 -4.721238,4.4435 -3.32457,2.5269 -6.608122,4.2144 -6.608122,4.2144 a 2.4453171,2.4369909 0 0 1 -2.32454,-0.041 c 0,0 -3.081495,-1.722 -6.200658,-4.2479 -1.559583,-1.263 -3.150079,-2.731 -4.429783,-4.4035 -1.279703,-1.6724 -2.331613,-3.6018 -2.331614,-5.8722 10e-7,-2.4167 1.24053,-4.4533 2.849908,-6.3617 1.609378,-1.9086 3.716867,-3.7042 6.053517,-5.3074 0.247153,-0.1696 0.515234,-0.3096 0.766357,-0.4751 -1.532559,-0.8691 -2.660322,-1.4617 -2.660322,-1.4617 a 2.4453171,2.4369909 0 0 1 -0.596108,-3.8959 l 6.554362,-6.4658 -3.211157,-3.1503 z m 4.614179,17.8388 c -0.920002,0.5087 -1.839131,1.0373 -2.694747,1.6242 -2.05178,1.4078 -3.866689,2.9872 -5.082484,4.4289 -1.215794,1.4417 -1.703437,2.7307 -1.703437,3.2261 0,0.642 0.412785,1.7186 1.329926,2.9173 0.917141,1.1985 2.255682,2.4668 3.625226,3.5757 1.828438,1.4806 3.340248,2.4514 4.365173,3.0789 1.078791,-0.6082 2.722153,-1.5803 4.718403,-3.0977 1.461711,-1.1112 2.889561,-2.39 3.865276,-3.6083 0.97571,-1.2183 1.412026,-2.3114 1.410097,-2.9994 -7.21e-4,-0.2921 -0.642992,-1.7394 -2.193431,-3.3023 -1.550438,-1.5628 -3.766173,-3.2663 -6.004004,-4.7883 -0.555725,-0.378 -1.087589,-0.7021 -1.635998,-1.0551 z"
       id="path4150"
       inkscape:connector-curvature="0" />
    <circle
       style="fill:#f2f2f2;fill-opacity:1;stroke:none;stroke-width:91.94599915;stroke-linecap:butt;stroke-linejoin:miter;stroke-miterlimit:4;stroke-dasharray:none;stroke-opacity:1"
       id="path5855"
       cx="754.68597"
       cy="727.1532"
       r="4.4868402"
       inkscape:export-xdpi="100.15573"
       inkscape:export-ydpi="100.15573"
       transform="matrix(0.70710678,0.70710678,-0.70710678,0.70710678,0,0)"
       inkscape:export-filename="/home/akaifi/WWW/akaifiIcon1.png" />
  </g>
</svg>
