<?xml version="1.0" encoding="UTF-8" standalone="no"?>
<!-- Created with Inkscape (http://www.inkscape.org/) -->

<svg
   xmlns:dc="http://purl.org/dc/elements/1.1/"
   xmlns:cc="http://creativecommons.org/ns#"
   xmlns:rdf="http://www.w3.org/1999/02/22-rdf-syntax-ns#"
   xmlns:svg="http://www.w3.org/2000/svg"
   xmlns="http://www.w3.org/2000/svg"
   xmlns:sodipodi="http://sodipodi.sourceforge.net/DTD/sodipodi-0.dtd"
   xmlns:inkscape="http://www.inkscape.org/namespaces/inkscape"
   width="32"
   height="32"
   viewBox="0 0 31.999999 31.999998"
   id="svg4738"
   version="1.1"
   inkscape:version="0.91 r13725"
   inkscape:export-filename="/home/akaifi/Projects/akaifi.github.io/img/ficon/favicon-32.png"
   inkscape:export-xdpi="90.022781"
   inkscape:export-ydpi="90.022781"
   sodipodi:docname="favicon-32.svg">
  <defs
     id="defs4740" />
  <sodipodi:namedview
     id="base"
     pagecolor="#ffffff"
     bordercolor="#666666"
     borderopacity="1.0"
     inkscape:pageopacity="0.0"
     inkscape:pageshadow="2"
     inkscape:zoom="13.78125"
     inkscape:cx="17.482345"
     inkscape:cy="16"
     inkscape:document-units="px"
     inkscape:current-layer="layer1"
     showgrid="false"
     units="px"
     inkscape:window-width="960"
     inkscape:window-height="1170"
     inkscape:window-x="2040"
     inkscape:window-y="673"
     inkscape:window-maximized="0" />
  <metadata
     id="metadata4743">
    <rdf:RDF>
      <cc:Work
         rdf:about="">
        <dc:format>image/svg+xml</dc:format>
        <dc:type
           rdf:resource="http://purl.org/dc/dcmitype/StillImage" />
        <dc:title></dc:title>
      </cc:Work>
    </rdf:RDF>
  </metadata>
  <g
     inkscape:label="Layer 1"
     inkscape:groupmode="layer"
     id="layer1"
     transform="translate(0,-1020.3622)">
    <path
       style="fill:#be284b;fill-opacity:1;fill-rule:nonzero;stroke:none;stroke-opacity:1"
       d="m 17.764844,1020.3556 1.129701,1.1083 a 1.629827,1.6242776 0 0 1 0.003,2.3116 l -3.99167,3.9378 c 0.461061,0.2627 1.002409,0.5865 1.5641,0.9249 2.069728,-0.9904 4.188756,-1.6314 6.133188,-1.6314 1.829747,0 3.437598,0.8855 4.926164,1.9972 1.488561,1.1117 2.87393,2.521 4.091304,3.9129 0.09663,0.1105 0.190325,0.2205 0.284782,0.3308 a 16.093645,16.038846 0 0 0 -14.140716,-12.8921 z m -4.473529,0.1689 a 16.093645,16.038846 0 0 0 -13.26342514,15.7841 16.093645,16.038846 0 0 0 16.09364314,16.0389 16.093645,16.038846 0 0 0 15.897504,-13.6753 c -0.701623,-0.978 -1.699259,-2.2991 -2.855366,-3.621 -1.123519,-1.2847 -2.389815,-2.5521 -3.589009,-3.4477 -1.199186,-0.8957 -2.31555,-1.3483 -2.971352,-1.3483 -0.697849,0 -1.675234,0.2498 -2.726488,0.6037 1.394519,0.9772 2.776238,2.0338 3.899564,3.1661 1.281581,1.2918 2.398688,2.6433 2.403674,4.4761 0.0042,1.569 -0.742562,2.8989 -1.651797,4.0341 -0.909236,1.1354 -2.038819,2.1194 -3.14675,2.9617 -2.215855,1.6842 -4.404377,2.809 -4.404377,2.809 a 1.629827,1.6242776 0 0 1 -1.549326,-0.026 c 0,0 -2.053845,-1.1477 -4.132797,-2.8313 -1.039477,-0.8417 -2.0995576,-1.8202 -2.9524923,-2.9348 -0.8529345,-1.1148 -1.5540422,-2.4008 -1.5540425,-3.9139 4e-7,-1.6108 0.8268241,-2.9683 1.8994901,-4.2403 1.0726657,-1.272 2.4773267,-2.4688 4.0347267,-3.5374 0.164729,-0.1129 0.343406,-0.2063 0.510784,-0.3166 -1.021466,-0.5792 -1.773129,-0.9742 -1.773129,-0.9742 a 1.629827,1.6242776 0 0 1 -0.397313,-2.5966 l 4.368544,-4.3094 -2.140266,-2.0999 z m 3.075394,11.8897 c -0.61319,0.3391 -1.225799,0.6913 -1.796075,1.0827 -1.367531,0.9381 -2.577185,1.9909 -3.387524,2.9517 -0.810338,0.961 -1.135355,1.82 -1.135355,2.1503 0,0.4279 0.275124,1.1454 0.886407,1.9443 0.611284,0.799 1.503433,1.644 2.416248,2.3834 1.218672,0.9869 2.226306,1.6338 2.909429,2.0521 0.719024,-0.4054 1.814341,-1.0534 3.144861,-2.0647 0.974241,-0.7404 1.925917,-1.5929 2.57624,-2.4049 0.650321,-0.8119 0.941129,-1.5406 0.939844,-1.9992 -4.81e-4,-0.1947 -0.428561,-1.1592 -1.461943,-2.201 -1.033382,-1.0416 -2.510188,-2.1769 -4.001723,-3.1914 -0.370398,-0.2519 -0.72489,-0.468 -1.090409,-0.7033 z"
       id="path4150"
       inkscape:connector-curvature="0" />
    <circle
       style="fill:#f2f2f2;fill-opacity:1;stroke:none;stroke-width:91.94599915;stroke-linecap:butt;stroke-linejoin:miter;stroke-miterlimit:4;stroke-dasharray:none;stroke-opacity:1"
       id="path5855"
       cx="751.17474"
       cy="732.78613"
       r="2.9905217"
       inkscape:export-xdpi="100.15573"
       inkscape:export-ydpi="100.15573"
       transform="matrix(0.70710678,0.70710678,-0.70710678,0.70710678,0,0)"
       inkscape:export-filename="/home/akaifi/WWW/akaifiIcon1.png" />
  </g>
</svg>
