<svg xmlns:rdf="http://www.w3.org/1999/02/22-rdf-syntax-ns#" xmlns="http://www.w3.org/2000/svg" version="1.1" xmlns:cc="http://creativecommons.org/ns#" xmlns:dc="http://purl.org/dc/elements/1.1/" viewBox="0 0 200 200">
 <g transform="translate(0 -852.36)">
  <path d="m110.89 852.36 7.0624 6.9287a10.189 10.154 0 0 1 0.0196 14.451l-24.954 24.619c2.8824 1.6414 6.2667 3.6661 9.7781 5.7811 12.939-6.1914 26.186-10.199 38.342-10.199 11.439 0 21.491 5.5361 30.796 12.487 9.3059 6.9504 17.967 15.76 25.577 24.462 0.60405 0.69068 1.1898 1.3789 1.7804 2.068a100.61 100.27 0 0 0 -88.4 -80.6zm-27.967 1.06a100.61 100.27 0 0 0 -82.918 98.67 100.61 100.27 0 0 0 100.62 100.31 100.61 100.27 0 0 0 99.38 -85.53c-4.3863-6.1139-10.623-14.373-17.851-22.637-7.0238-8.031-14.94-15.955-22.437-21.554-7.4968-5.5993-14.476-8.4288-18.576-8.4288-4.3627 0-10.473 1.561-17.045 3.7738 8.718 6.1094 17.356 12.715 24.379 19.793 8.012 8.0759 14.996 16.525 15.027 27.983 0.0265 9.8087-4.6422 18.122-10.326 25.22-5.6842 7.0976-12.746 13.25-19.672 18.514-13.853 10.53-27.534 17.561-27.534 17.561a10.189 10.154 0 0 1 -9.6858 -0.1688s-12.84-7.1748-25.837-17.7c-6.4984-5.2624-13.126-11.379-18.458-18.348-5.3322-6.9687-9.7153-15.008-9.7153-24.468 0.000003-10.07 5.169-18.556 11.875-26.509 6.7059-7.952 15.487-15.434 25.224-22.114 1.0298-0.70656 2.1469-1.2906 3.1932-1.9799-6.3858-3.6209-11.085-6.0905-11.085-6.0905a10.189 10.154 0 0 1 -2.478 -16.21l27.31-26.94-13.38-13.12zm19.226 74.33c-3.8334 2.1197-7.6632 4.3222-11.228 6.7681-8.5493 5.8654-16.112 12.446-21.177 18.454-5.0659 6.0073-7.0978 11.378-7.0978 13.442 0 2.6747 1.72 7.1613 5.5415 12.156 3.8215 4.9944 9.3989 10.278 15.105 14.899 7.6187 6.1697 13.918 10.214 18.189 12.829 4.4951-2.534 11.343-6.5849 19.66-12.907 6.0906-4.6294 12.04-9.9579 16.106-15.034 4.0656-5.0765 5.8836-9.6313 5.8755-12.498-0.003-1.2174-2.6792-7.2476-9.1395-13.76-6.4603-6.5119-15.693-13.61-25.017-19.952-2.3156-1.5749-4.5317-2.9254-6.8168-4.3965z" fill="#f2f2f2"/>
  <circle cx="788.1" cy="673.38" transform="rotate(45)" r="18.696" fill="#be284b"/>
 </g>
</svg>
